<svg xmlns="http://www.w3.org/2000/svg" xmlns:xlink="http://www.w3.org/1999/xlink" width="256.929" height="238.202" viewBox="0 0 256.929 238.202">
  <defs>
    <linearGradient id="linear-gradient" x1="0.5" y1="1" x2="0.5" gradientUnits="objectBoundingBox">
      <stop offset="0" stop-color="gray" stop-opacity="0.251"/>
      <stop offset="0.54" stop-color="gray" stop-opacity="0.122"/>
      <stop offset="1" stop-color="gray" stop-opacity="0.102"/>
    </linearGradient>
    <linearGradient id="linear-gradient-2" x1="0.507" y1="1.003" x2="0.507" y2="0" xlink:href="#linear-gradient"/>
  </defs>
  <g id="Group_7" data-name="Group 7" transform="translate(0.003 -0.18)">
    <ellipse id="Ellipse_3" data-name="Ellipse 3" cx="62.068" cy="4.747" rx="62.068" ry="4.747" transform="translate(75.996 228.888)" fill="#6c63ff"/>
    <ellipse id="Ellipse_4" data-name="Ellipse 4" cx="62.068" cy="4.747" rx="62.068" ry="4.747" transform="translate(75.996 228.888)" opacity="0.4"/>
    <path id="Path_18" data-name="Path 18" d="M221.672,85.408c8.7-7.767,22.391-9.35,34.848-8.724,39.121,1.942,74.438,20.83,104.98,42.194,11.057,7.736,21.945,16.07,29.125,26.719,14.613,21.681,10.276,51.718-10.043,69.579-6.914,6.077-15.292,10.737-23.9,14.877-15.3,7.343-31.806,13.238-49.167,14.913-12.382,1.2-24.917.225-37.226-1.446-34.385-4.682-68.142-14.981-96.436-32.642-12.41-7.739-24.106-17.358-29.22-29.88S142.8,152.615,155.467,145.2c5.241-3.065,11.509-4.449,17.642-5.749,9.03-1.914,18.206-3.8,26.355-7.688,8.421-4.02,18.38-11.789,16.715-20.679C214.391,101.548,212.97,93.166,221.672,85.408Z" transform="translate(-142.33 -62.129)" fill="#6c63ff"/>
    <path id="Path_19" data-name="Path 19" d="M221.672,85.408c8.7-7.767,22.391-9.35,34.848-8.724,39.121,1.942,74.438,20.83,104.98,42.194,11.057,7.736,21.945,16.07,29.125,26.719,14.613,21.681,10.276,51.718-10.043,69.579-6.914,6.077-15.292,10.737-23.9,14.877-15.3,7.343-31.806,13.238-49.167,14.913-12.382,1.2-24.917.225-37.226-1.446-34.385-4.682-68.142-14.981-96.436-32.642-12.41-7.739-24.106-17.358-29.22-29.88S142.8,152.615,155.467,145.2c5.241-3.065,11.509-4.449,17.642-5.749,9.03-1.914,18.206-3.8,26.355-7.688,8.421-4.02,18.38-11.789,16.715-20.679C214.391,101.548,212.97,93.166,221.672,85.408Z" transform="translate(-142.33 -62.129)" fill="#0c1d8a" opacity="0.5"/>
    <path id="Path_20" data-name="Path 20" d="M554.947,46.216v.5a3.245,3.245,0,0,1-.02.432v.09c0,.121-.014.241-.025.359v.1a.375.375,0,0,1,0,.056,3.238,3.238,0,0,1-.028.328c-.011.109-.02.174-.028.264-.025.216-.053.432-.087.648-.02.143-.042.281-.065.427a.131.131,0,0,0,0,.031c-.014.07-.025.14-.039.213s-.014.081-.023.124a.308.308,0,0,1-.022.112,1.423,1.423,0,0,0-.045.225c-.017.073-.031.149-.048.225s-.023.109-.037.166-.042.188-.065.281a.036.036,0,0,0,0,.017l-.051.194-.059.236c-.025.1-.053.191-.079.281a.1.1,0,0,1-.022.076l-.084.281c-.09.3-.188.6-.281.89l-.1.281-.059.154a19.933,19.933,0,0,1-2.737,4.918c-.067.1-.14.188-.211.281a20.961,20.961,0,0,1-1.726,1.965l-28.7,28.7-28.7-28.7a20.325,20.325,0,0,1-2.246-2.672,19.652,19.652,0,0,1-1.168-1.864A20.309,20.309,0,0,1,485.741,44.3c.031-.368.073-.735.124-1.1.09-.646.213-1.288.365-1.926.031-.129.065-.258.1-.385.017-.065.034-.132.051-.194s.02-.079.031-.118l.084-.281h0c.067-.222.135-.444.208-.665l.1-.3c.152-.429.314-.842.494-1.274l.109-.25c.056-.126.112-.253.171-.379.1-.2.194-.4.281-.6l.025-.045h0c.045-.093.093-.18.14-.281l.166-.306c.07-.126.143-.253.216-.379.034-.059.07-.118.1-.18s.042-.065.062-.1a.128.128,0,0,0,0-.02h0c.045-.073.09-.146.138-.219s.1-.166.157-.247c.118-.182.239-.365.362-.545l.132-.188.166-.227c.056-.081.115-.16.177-.239l.213-.281c.067-.081.132-.166.2-.247l.07-.084.143-.174c.073-.09.149-.177.225-.264l.1-.115.017-.02.171-.191.191-.211c.18-.194.365-.387.561-.561l.222-.219.345-.326c.076-.07.152-.14.23-.208s.18-.163.281-.241l.18-.152c.059-.053.121-.1.18-.152a4.549,4.549,0,0,1,.365-.281l.185-.146c.309-.236.62-.463.94-.682l.191-.129.194-.126.182-.118.281-.168.135-.081.2-.115c.264-.154.528-.3.794-.444l.16-.084.247-.126.2-.1.2-.1.2-.1.208-.093.208-.09c.281-.121.561-.233.842-.34l.182-.112.225-.081.2-.07.168-.056.387-.124.2-.062.16-.045.157-.045q.14-.042.281-.076l.371-.1c.382-.093.766-.177,1.151-.247l.157-.028.219-.036.225-.036.281-.042.166-.022c.371-.048.741-.087,1.123-.115h2.608a1.619,1.619,0,0,1,.281.017h.191c.3.022.6.053.89.087l.4.053.281.039.222.036.222.036.146.025q.575.107,1.145.244l.466.121.129.036.2.056c.129.036.258.073.385.115l.168.053q.421.129.842.281l.191.07.25.1.376.152c.146.062.281.124.43.188l.168.073.23.109.2.1.2.1L515.3,28l.2.107c.157.084.314.168.469.258l.2.112c.23.132.455.281.679.413l.182.118.194.126.191.129h0l.126.087c.281.188.536.385.8.587l.185.146c.121.1.244.194.365.281.059.048.121.1.18.152l.18.152.281.241c.079.067.154.138.23.208l.323.342.222.219.225-.219.342-.326c.076-.07.152-.14.23-.208s.18-.163.281-.241l.18-.152c.059-.053.121-.1.18-.152a4.57,4.57,0,0,1,.365-.281l.185-.146c.309-.236.62-.463.94-.682l.191-.129.194-.126.182-.118.267-.168.135-.081.2-.115c.264-.154.528-.3.794-.443l.16-.084.247-.126.2-.1.2-.1.2-.1.208-.093.208-.09c.281-.121.561-.233.842-.34.067-.025.138-.053.208-.076l.222-.081.2-.07.166-.056.387-.124.2-.062.16-.045.157-.045c.093-.028.185-.053.281-.076l.368-.1c.382-.093.766-.177,1.151-.247l.157-.028.219-.036.225-.036.281-.042.166-.022c.37-.048.741-.087,1.123-.115h2.582a1.619,1.619,0,0,1,.281.017h.191c.3.022.6.053.89.087l.4.053.281.039.222.036.222.036.146.025q.575.107,1.145.244l.466.121.129.036.2.056c.129.036.258.073.387.115l.165.053c.281.087.562.182.842.281l.188.07.25.1.376.152c.146.062.281.124.43.188l.168.073.23.109.2.1.2.1.255.129.2.107c.154.084.311.168.466.258l.2.112c.23.132.458.281.679.413l.182.118.194.126.191.129h.014l.126.087c.281.188.536.385.8.587l.185.146c.121.1.244.194.365.281.059.048.121.1.18.152l.18.152.233.208c.079.07.157.14.233.213l.132.121h0a.129.129,0,0,1,.02.02c.076.067.149.14.225.211l.1.1c.039.042.079.081.121.121l.222.227c.112.115.224.233.334.354.065.067.129.138.191.208.107.118.211.236.314.356l.331.4c.379.466.733.943,1.067,1.432l.135.2c.051.073.1.146.143.219l.121.188c.067.109.135.216.2.326l.177.3c.037.062.073.124.107.185l.081.146.081.146.118.222.115.222q.4.775.719,1.58l.093.227c.087.222.168.441.247.665l.07.2c.031.1.065.191.093.281s.056.171.081.258l.051.163c.025.079.048.157.07.236s.053.194.081.281c.042.157.081.314.121.474l.059.247c.028.118.053.236.079.354a.723.723,0,0,0,.031.152c.011.051.028.135.039.2s.022.107.031.16l.025.135a.252.252,0,0,0,.022.126c.022.042,0,.081.02.124l.042.253a1.566,1.566,0,0,0,.036.253c.014.084.025.188.036.281s.022.18.031.281l.017.154c0,.093.02.185.028.281v.138c0,.1.017.191.022.281a.041.041,0,0,1,0,.02v.362a2.192,2.192,0,0,0,.014.3h0V45.6A3.591,3.591,0,0,1,554.947,46.216Z" transform="translate(-389.296 -25.61)" fill="#ff6584"/>
    <path id="Path_21" data-name="Path 21" d="M556.373,46.216v.5a3.235,3.235,0,0,1-.02.432v.09c0,.121-.014.241-.025.359v.1a.392.392,0,0,1,0,.056,3.238,3.238,0,0,1-.028.328c-.011.109-.02.174-.028.264-.025.216-.053.432-.087.648-.02.143-.042.281-.065.427a.119.119,0,0,0,0,.031c-.014.07-.025.14-.039.213s-.014.081-.022.124a.308.308,0,0,1-.023.112,1.438,1.438,0,0,0-.045.225c-.017.073-.031.149-.048.225s-.022.109-.036.166-.042.188-.065.281a.037.037,0,0,0,0,.017l-.05.194-.059.236c-.025.1-.053.191-.079.281a.1.1,0,0,1-.022.076l-.084.281c-.09.3-.188.6-.281.89l-.1.281-.059.154a20.308,20.308,0,0,0-8.853-21.894q-.547-.348-1.106-.657a20.289,20.289,0,0,0-24.168,3.469,20.337,20.337,0,0,0-2.479-2.105h0a19.991,19.991,0,0,0-2.1-1.33,20.336,20.336,0,0,0-19.542,0,20.063,20.063,0,0,0-2.883,1.926,20.733,20.733,0,0,0-5.053,5.914.1.1,0,0,1,0,.025,19.269,19.269,0,0,0-.867,1.738c-.146.326-.281.657-.407.988.031-.129.065-.258.1-.385.017-.065.034-.132.051-.194s.02-.079.031-.118l.084-.281h0c.067-.222.135-.444.208-.665l.1-.3c.152-.429.314-.842.494-1.274l.109-.25c.056-.126.112-.253.171-.379.1-.2.194-.4.281-.6l.025-.045h0c.045-.093.093-.18.14-.281l.166-.306c.07-.126.143-.253.216-.379.034-.059.07-.118.1-.18s.042-.065.062-.1a.121.121,0,0,0,0-.02h0c.045-.073.09-.146.138-.219s.1-.166.157-.247c.118-.182.239-.365.362-.545l.132-.188.166-.227c.056-.081.115-.16.177-.239l.213-.281c.067-.081.132-.166.2-.247l.07-.084.143-.174c.073-.09.149-.177.225-.264l.1-.115.017-.02.171-.191.191-.211c.18-.194.365-.387.561-.561l.222-.219.345-.326c.076-.07.152-.14.23-.208s.18-.163.281-.241l.18-.152c.059-.053.121-.1.18-.152a4.531,4.531,0,0,1,.365-.281l.185-.146c.309-.236.62-.463.94-.682l.191-.129.194-.126.182-.118.281-.168.135-.081.2-.115c.264-.154.528-.3.794-.444l.16-.084.247-.126.2-.1.2-.1.2-.1.208-.093.208-.09c.281-.121.561-.233.842-.34l.188-.124.225-.081.2-.07.168-.056.387-.124.2-.062.16-.045.157-.045q.14-.042.281-.076l.371-.1c.382-.093.766-.177,1.151-.247l.157-.028.219-.036.225-.036.281-.042.166-.022c.371-.048.741-.087,1.123-.115h2.608a1.618,1.618,0,0,1,.281.017h.191c.3.022.6.053.89.087l.4.053.281.039.222.036.222.036.146.025q.575.107,1.145.244l.466.121.129.036.2.056c.129.036.258.073.385.115l.168.053q.421.129.842.281l.191.07.25.1.376.152c.146.062.281.124.429.188l.168.073.23.109.2.1.2.1.255.129.2.107c.157.084.314.168.469.258l.2.112c.23.132.455.281.679.413l.182.118.194.126.191.129h0l.126.087c.281.188.536.385.8.587l.185.146c.121.1.244.194.365.281.059.048.121.1.18.152l.18.152.281.241c.078.067.154.138.23.208l.323.342.222.219.225-.219.342-.326c.076-.07.152-.14.23-.208s.18-.163.281-.241l.18-.152c.059-.053.121-.1.18-.152a4.517,4.517,0,0,1,.365-.281l.185-.146c.309-.236.62-.463.94-.682l.191-.129.194-.126.182-.118.267-.168.135-.081.2-.115c.264-.154.528-.3.794-.443l.16-.084.247-.126.2-.1.2-.1.2-.1.208-.093.208-.09c.281-.121.561-.233.842-.34.067-.025.138-.053.208-.076l.222-.081.2-.07.166-.056.387-.124.2-.062.16-.045.157-.045c.093-.028.185-.053.281-.076l.368-.1c.382-.093.766-.177,1.151-.247l.157-.028.219-.036.224-.036.281-.042.166-.022c.371-.048.741-.087,1.123-.115h2.582a1.619,1.619,0,0,1,.281.017h.191c.3.022.6.053.89.087l.4.053.281.039.222.036.222.036.146.025q.575.107,1.145.244l.466.121.129.036.2.056c.129.036.258.073.387.115l.166.053c.281.087.561.182.842.281l.188.07.25.1.376.152c.146.062.281.124.429.188l.168.073.23.109.2.1.2.1.255.129.2.107c.154.084.312.168.466.258l.2.112c.23.132.458.281.679.413l.182.118.194.126.191.129h.014l.126.087c.281.188.536.385.8.587l.185.146c.121.1.244.194.365.281.059.048.121.1.18.152l.18.152.233.208c.079.07.157.14.233.213l.132.121h0a.133.133,0,0,1,.02.02c.076.067.149.14.225.211l.1.1c.039.042.078.081.121.121l.222.227c.112.115.225.233.334.354.065.067.129.138.191.208.107.118.211.236.314.356l.331.4c.379.466.733.943,1.067,1.432l.135.2c.051.073.1.146.143.219l.121.188c.067.109.135.216.2.326l.177.3c.036.062.073.124.107.185l.081.146.081.146.118.222.115.222q.4.775.719,1.58l.093.227c.087.222.168.441.247.665l.07.2c.031.1.064.191.093.281s.056.171.081.258l.051.163c.025.079.048.157.07.236s.053.194.081.281c.042.157.081.314.121.474l.059.247c.028.118.053.236.079.354a.731.731,0,0,0,.031.152c.011.051.028.135.039.2s.022.107.031.16l.025.135a.252.252,0,0,0,.023.126c.022.042,0,.081.02.124l.042.253a1.566,1.566,0,0,0,.036.253c.014.084.025.188.036.281s.022.18.031.281l.017.154c0,.093.02.185.028.281v.138c0,.1.017.191.023.281a.043.043,0,0,1,0,.02v.362a2.2,2.2,0,0,0,.014.3h0V45.6A3.591,3.591,0,0,1,556.373,46.216Z" transform="translate(-390.722 -25.61)" opacity="0.1"/>
    <path id="Path_22" data-name="Path 22" d="M845.619,305.6v.446a.037.037,0,0,1,0,.017v.18l-.025.2a1.027,1.027,0,0,1-.02.129h0v.1a.142.142,0,0,1,0,.034v.07a.576.576,0,0,1-.014.067q0,.025,0,.051a.159.159,0,0,1-.02.087h0l-.017.059-.017.07-.025.087v.025a.583.583,0,0,1-.028.087c-.025.093-.056.182-.087.281a.319.319,0,0,1-.031.087.342.342,0,0,1-.02.048,6.05,6.05,0,0,1-.82,1.5l-.065.087a6.179,6.179,0,0,1-.528.6l-8.856,8.769-8.76-8.761a6.247,6.247,0,0,1-.688-.814,6.4,6.4,0,0,1-.356-.561,6.22,6.22,0,0,1-.75-3.523,2.3,2.3,0,0,1,.039-.337c.028-.2.065-.393.112-.587a.449.449,0,0,1,.028-.118l.017-.059v-.036l.025-.087h0c.02-.067.042-.135.065-.2s.02-.062.031-.093q.067-.2.152-.387l.034-.079.051-.115c.031-.062.059-.124.093-.182v-.014h0l.045-.081.05-.093c.02-.039.042-.079.065-.118l.034-.053.017-.031h0c0-.022.025-.045.039-.067s.034-.05.048-.076.073-.112.112-.166l.039-.059.051-.07.053-.07.067-.087.059-.076.022-.025.042-.053.07-.081.028-.034h0l.053-.059c.017-.022.039-.042.059-.065s.109-.118.168-.177l.067-.065.1-.1.07-.065.084-.073.053-.045.056-.048.109-.09.059-.045c.093-.07.188-.14.281-.208l.059-.039.056-.039.056-.034.084-.053.039-.022.062-.036c.079-.048.16-.093.241-.135l.048-.025.076-.039.062-.031.065-.031.062-.028.062-.028.064-.028.255-.1.065-.022.067-.025.062-.022.051-.017.118-.036.062-.02.048-.014.048-.014.087-.022.112-.028c.115-.031.233-.056.351-.076h.32c.112-.014.225-.028.34-.036h.94l.281.028.123.017h.261c.118.02.233.045.351.073l.14.036h.039l.062.017.118.036.051.014c.087.028.171.056.255.09l.059.02.076.031.115.045.129.056.053.025.07.031.062.031.062.031.078.039.062.034.143.076.059.036c.07.039.14.081.208.126l.056.034.059.039.059.039h0l.039.028.244.177a.429.429,0,0,0,.056.045l.112.09.053.048.056.045.081.073.07.065.1.1a.781.781,0,0,1,.07.065.5.5,0,0,1,.067-.065l.1-.1.07-.065.081-.073.056-.045.053-.048.112-.09a.434.434,0,0,0,.056-.045l.281-.208.059-.039.059-.039.056-.034.081-.053.042-.022.059-.036q.121-.073.244-.135l.048-.025.076-.039.062-.031.062-.031.065-.028.062-.028.065-.028.255-.1.065-.022.067-.025.062-.022.051-.017.118-.036.062-.02.048-.014.048-.014.084-.022.112-.028q.177-.045.354-.076h.317c.115-.014.227-.028.34-.036h.94l.281.028a.293.293,0,0,1,.121.017h.264c.115.02.233.045.348.073l.143.036h.039l.062.017.118.037.051.014c.084.028.171.056.255.09l.056.02.076.031.115.045.132.056.051.025.07.031.065.031.062.031.076.039.065.034.14.076.062.036c.07.039.138.081.208.126l.056.034.056.039.059.039h0l.036.028q.126.084.244.177l.059.045.109.09.056.048.053.045.073.065.07.065.039.036h0l.067.065.031.028.036.036.067.07.1.107c.02.022.039.042.056.065l.1.109.1.121a4.657,4.657,0,0,1,.326.438l.042.062.042.067.036.056.062.1.053.09.034.059.025.045.022.045a.487.487,0,0,1,.036.065l.034.07c.081.157.154.317.222.48,0,.025.02.048.028.07l.076.2a.084.084,0,0,0,.02.065c.02.022.02.056.031.087a.633.633,0,0,1,.023.079l.017.048a.353.353,0,0,0,.02.073l.025.09c.014.048.025.1.036.143a.767.767,0,0,1,.02.076.767.767,0,0,0,.022.109.1.1,0,0,1,0,.045v.814h0v.053a.375.375,0,0,0,0,.056v.093h0v.1C845.45,305.44,845.622,305.538,845.619,305.6Z" transform="translate(-633 -222.44)" fill="#ff6584"/>
    <path id="Path_23" data-name="Path 23" d="M846.323,305.542v.446a.036.036,0,0,1,0,.017v.18l-.025.2a1.026,1.026,0,0,1-.02.129h0v.1a.141.141,0,0,1,0,.034v.07a.55.55,0,0,1-.014.067c0,.017,0,.034,0,.051a.159.159,0,0,1-.02.087h0l-.017.059-.017.07-.025.087v.025a.586.586,0,0,1-.028.087c-.025.093-.056.182-.087.281a.32.32,0,0,1-.031.087.33.33,0,0,1-.02.048,6.03,6.03,0,0,0,.171-1.5,6.209,6.209,0,0,0-2.872-5.179c-.112-.073-.225-.138-.34-.2a6.212,6.212,0,0,0-5.962,0,6.453,6.453,0,0,0-.589.368,6.183,6.183,0,0,0-.808.685,6.268,6.268,0,0,0-.758-.646h0a6.462,6.462,0,0,0-.64-.407,6.176,6.176,0,0,0-6.846.589,6.644,6.644,0,0,0-.516.463,6.116,6.116,0,0,0-.679.806c-.123.174-.238.354-.342.536h0a5.825,5.825,0,0,0-.264.53c-.045.1-.087.2-.124.3a.45.45,0,0,1,.028-.118l.017-.059V303.8l.025-.087h0c.02-.067.042-.135.065-.2s.02-.062.031-.093q.067-.2.152-.387l.034-.079.051-.115c.031-.062.059-.124.093-.182v-.014h0l.045-.081.051-.093c.02-.039.042-.079.065-.118l.034-.053.017-.031h0c0-.022.025-.045.039-.067s.034-.051.048-.076.073-.112.112-.166l.039-.059.05-.07.053-.07.067-.087.059-.076.022-.025.042-.053.07-.081.028-.034h0l.053-.059c.017-.022.039-.042.059-.065s.109-.118.168-.177l.067-.065.1-.1.07-.065.084-.073.053-.045.056-.048.11-.09.059-.045c.093-.07.188-.14.281-.208l.059-.039.056-.039.056-.034.084-.053.039-.022.062-.036c.079-.048.16-.093.241-.135l.048-.025.076-.039.062-.031.064-.031.062-.028.062-.028.065-.028.255-.1.065-.022.067-.025.062-.022.051-.017.118-.036.062-.02.048-.014.048-.014.087-.022.112-.028c.115-.031.233-.056.351-.076h.32c.112-.014.225-.028.34-.036h.94l.281.028.124.017h.261c.118.02.233.045.351.073l.14.036h.039l.062.017.118.037.05.014c.087.028.171.056.255.09l.059.02.076.031.115.045.129.056.053.025.07.031.062.031.062.031.079.039.062.034.143.076.059.036c.07.039.14.081.208.126l.056.034.059.039.059.039h0l.039.028.244.177a.435.435,0,0,0,.056.045l.112.09.053.048.056.045.081.073.07.065.1.1a.775.775,0,0,1,.07.065.487.487,0,0,1,.067-.065l.1-.1.07-.065.081-.073.056-.045.053-.048.112-.09a.433.433,0,0,0,.056-.045l.281-.208.059-.039.059-.039.056-.034.081-.053.042-.022.059-.036q.121-.073.244-.135l.048-.025.076-.039.062-.031.062-.031.065-.028.062-.028.065-.028.255-.1.065-.022.067-.025.062-.022.051-.017.118-.036.062-.02.048-.014.048-.014.084-.022.112-.028q.177-.045.354-.076h.317c.115-.014.227-.028.34-.036h.94l.281.028a.293.293,0,0,1,.121.017h.264c.115.02.233.045.348.073l.143.036h.039l.062.017.118.036.051.014c.084.028.171.056.255.09l.056.02.076.031.115.045.132.056.051.025.07.031.065.031.062.031.076.039.065.034.14.076.062.036c.07.039.138.081.208.126l.056.034.056.039.059.039h0l.036.028q.126.084.244.177l.059.045.11.09.056.048.053.045.073.065.07.065.039.037h0l.067.065.031.028.036.036.067.07.1.107c.02.022.039.042.056.065l.1.109.1.121a4.66,4.66,0,0,1,.326.438l.042.062.042.067.036.056.062.1.053.09.034.059.025.045.022.045a.474.474,0,0,1,.036.065l.034.07c.081.157.154.317.222.48,0,.025.02.048.028.07l.076.2a.084.084,0,0,0,.02.065c.02.022.02.056.031.087a.639.639,0,0,1,.022.079l.017.048a.355.355,0,0,0,.02.073l.025.09c.014.048.025.1.037.143a.757.757,0,0,1,.02.076.758.758,0,0,0,.022.109.1.1,0,0,1,0,.045v.814h0v.053a.359.359,0,0,0,0,.056v.093h0v.1C846.255,305.36,846.325,305.48,846.323,305.542Z" transform="translate(-633.703 -222.383)" opacity="0.1"/>
    <path id="Path_24" data-name="Path 24" d="M701.234,264.111v.573a.767.767,0,0,1,0,.079.533.533,0,0,1-.025.2c-.025.065,0,.087-.02.129h0a.555.555,0,0,1,0,.065.217.217,0,0,1,0,.039v.1l-.017.067a.332.332,0,0,1,0,.05.831.831,0,0,1-.02.087h0a.432.432,0,0,0,0,.059.717.717,0,0,0-.02.073l-.025.087a.063.063,0,0,1,0,.022l-.025.09c-.028.09-.056.182-.09.281a.256.256,0,0,1-.031.084l-.017.048a6.177,6.177,0,0,1-.822,1.5l-.065.084a6.167,6.167,0,0,1-.525.6l-8.76,8.758-8.761-8.758a6.211,6.211,0,0,1-.685-.817,6.037,6.037,0,0,1-.359-.561,6.176,6.176,0,0,1-.747-3.52,2.675,2.675,0,0,1,.036-.337c.028-.2.065-.393.112-.589a.409.409,0,0,1,.031-.115.4.4,0,0,1,.014-.062.148.148,0,0,1,0-.034l.025-.09h0c.02-.067.039-.135.062-.2l.034-.093c.045-.132.1-.261.149-.39l.034-.076c.017-.039.034-.079.053-.115s.059-.123.09-.185v-.014h0l.042-.084.05-.093.067-.115a.547.547,0,0,1,.031-.056l.02-.031h0l.042-.067c.014-.025.031-.051.048-.076l.109-.166.042-.056.05-.07.053-.073.065-.087a.769.769,0,0,1,.062-.073.235.235,0,0,1,.02-.028l.045-.051.067-.081.031-.036h0l.051-.059.059-.065.169-.174.067-.067.107-.1a.771.771,0,0,1,.07-.065l.081-.073.056-.048.053-.045.112-.09.056-.045c.093-.073.191-.143.281-.208l.059-.039.059-.039.056-.036.081-.051.039-.025.062-.036c.078-.045.16-.093.241-.135l.05-.025-.006-.065.062-.031.062-.028.062-.031.065-.028.062-.028.258-.1.062-.022.068-.025.062-.02.053-.017.118-.039.059-.017.05-.014.048-.014.084-.025.112-.028.351-.076h.32c.112-.014.227-.025.34-.034h.94a2.547,2.547,0,0,1,.281.025l.121.017h.261c.118.022.236.048.351.076l.143.037h.039a.465.465,0,0,1,.059.017l.118.034.053.017.253.087.059.022.076.028.115.048.132.056.051.022.07.034.062.028.062.031.079.039.062.034.143.079.062.034.2.126.056.036.059.039.059.039h0l.039.025c.084.059.166.118.244.18a.442.442,0,0,1,.056.045c.039.028.076.059.112.09l.056.045.053.048.081.073a.768.768,0,0,1,.07.065l.107.1.067.067.067-.067.1-.1.07-.065.084-.073.053-.048.056-.045c.036-.031.073-.062.112-.09a.436.436,0,0,1,.056-.045c.093-.073.188-.143.281-.208l.059-.039.059-.039.053-.036.084-.051.039-.025.062-.036c.079-.045.16-.093.241-.135l.048-.025.076-.039.065-.031.062-.028.062-.031.065-.028.062-.028.255-.1.065-.022.067-.025.062-.02.05-.017.118-.039.062-.017.048-.014.048-.014.087-.025.112-.028c.118-.028.233-.053.351-.076h.32c.112-.014.225-.025.34-.034h.94l.281.025.121.017h.261c.118.022.233.048.351.076l.143.037h.037a.4.4,0,0,1,.062.017l.118.034.051.017.255.087.059.022.076.028.115.048.132.056.051.022.07.034.062.028.062.031.079.039.062.034.143.079.059.034.208.126.056.036.059.039.059.039h0l.039.025.244.18.056.045.112.09.053.045.056.048.07.062.073.065.039.039h0l.07.065.031.031.036.036.067.067.1.109.059.065c.034.034.065.07.1.107l.1.121a5.066,5.066,0,0,1,.326.438l.042.062.042.067a.661.661,0,0,1,.036.059,1.141,1.141,0,0,1,.062.1c.02.034.036.062.053.093l.034.056.025.045.025.045.034.067c0,.022.025.045.036.067.081.157.154.32.219.483a.524.524,0,0,1,.028.07q.042.1.076.2a.183.183,0,0,0,.022.062l.028.087.025.079a.07.07,0,0,0,.014.051c.014.017,0,.048.022.07l.025.09a.7.7,0,0,0,.037.146l.017.076.025.107v.048a.417.417,0,0,1,0,.062.271.271,0,0,1,0,.048.211.211,0,0,1,0,.042v.076a.682.682,0,0,1,0,.076.734.734,0,0,1,0,.079.177.177,0,0,0,.014.084v.345h0v.2h0v.093C701.234,263.982,701.234,264.043,701.234,264.111Z" transform="translate(-529.222 -192.575)" fill="#ff6584"/>
    <path id="Path_25" data-name="Path 25" d="M701.386,264.111v.573a.734.734,0,0,1,0,.079.533.533,0,0,1-.025.2c-.025.065,0,.087-.02.129h0a.542.542,0,0,1,0,.065.235.235,0,0,1,0,.039v.1l-.017.067a.332.332,0,0,1,0,.05.816.816,0,0,1-.02.087h0a.475.475,0,0,0,0,.059.7.7,0,0,0-.02.073l-.025.087a.069.069,0,0,1,0,.022l-.025.09c-.028.09-.056.182-.09.281a.255.255,0,0,1-.031.084l-.017.048a6.2,6.2,0,0,0-2.7-6.681c-.109-.07-.222-.138-.337-.2a6.2,6.2,0,0,0-5.965,0,5.543,5.543,0,0,0-.587.368,5.963,5.963,0,0,0-.811.682,6.314,6.314,0,0,0-.758-.646h0a6.123,6.123,0,0,0-.64-.4,6.2,6.2,0,0,0-7.363,1.05,6.111,6.111,0,0,0-.8.806c-.124.174-.236.354-.34.536h0c-.1.174-.185.351-.264.531-.045.1-.084.2-.123.3a.411.411,0,0,1,.031-.115.4.4,0,0,1,.014-.062.155.155,0,0,1,0-.034l.025-.09h0c.02-.067.039-.135.062-.2l.034-.093c.045-.132.1-.261.149-.39l.034-.076c.017-.039.034-.079.053-.115s.059-.124.09-.185v-.014h0l.042-.084.051-.093.067-.115a.548.548,0,0,1,.031-.056l.02-.031h0l.042-.067c.014-.025.031-.051.048-.076l.109-.166.042-.056.051-.07.053-.073.065-.087a.774.774,0,0,1,.062-.073.246.246,0,0,1,.02-.028l.045-.051.067-.081.031-.036h0l.051-.059.059-.065.168-.174.067-.067.107-.1a.763.763,0,0,1,.07-.065l.081-.073.056-.048.053-.045.112-.09.056-.045c.093-.073.191-.143.281-.208l.059-.039.059-.039.056-.036.081-.051.039-.025.062-.036c.079-.045.16-.093.241-.135l.051-.025.107-.048.062-.031.062-.028.062-.031.065-.028.062-.028.258-.1.062-.022.067-.025.062-.02.053-.017.118-.039.059-.017.05-.014.048-.014.084-.025.112-.028.351-.076h.32c.112-.014.227-.025.34-.034h.94a2.545,2.545,0,0,1,.281.025l.121.017h.261c.118.022.236.048.351.076l.143.037h.039a.466.466,0,0,1,.059.017l.118.034.053.017.253.087.059.022.076.028.115.048.132.056.05.022.07.034.062.028.062.031.079.039.062.034.143.079.062.034.2.126.056.036.059.039.059.039h0l.039.025c.084.059.166.118.244.18a.442.442,0,0,1,.056.045c.039.028.076.059.112.09l.056.045.053.048.081.073a.76.76,0,0,1,.07.065l.107.1.067.067.067-.067.1-.1.07-.065.084-.073.053-.048.056-.045c.036-.031.073-.062.112-.09a.445.445,0,0,1,.056-.045c.093-.073.188-.143.281-.208l.059-.039.059-.039.053-.036.084-.051.039-.025.062-.036c.079-.045.16-.093.241-.135l.048-.025.076-.039.065-.031.062-.028.062-.031.065-.028.062-.028.255-.1.065-.022.067-.025.062-.02.051-.017.118-.039.062-.017.048-.014.048-.014.087-.025.112-.028c.118-.028.233-.053.351-.076h.32c.112-.014.225-.025.34-.034h.94l.281.025.121.017h.261c.118.022.233.048.351.076l.143.037h.036a.4.4,0,0,1,.062.017l.118.034.051.017.255.087.059.022.076.028.115.048.132.056.051.022.07.034.062.028.062.031.079.039.062.034.143.079.059.034.208.126.056.036.059.039.059.039h0l.039.025.244.18.056.045.112.09.053.045.056.048.07.062.073.065.039.039h0l.07.065.031.031.036.036.067.067.1.109.059.065c.034.034.065.07.1.107l.1.121a5.079,5.079,0,0,1,.326.438l.042.062.042.067a.647.647,0,0,1,.036.059,1.141,1.141,0,0,1,.062.1c.02.034.036.062.053.093l.034.056.025.045.025.045.034.067c0,.022.025.045.036.067.081.157.154.32.219.483a.508.508,0,0,1,.028.07q.042.1.076.2a.184.184,0,0,0,.022.062l.028.087.025.079a.07.07,0,0,0,.014.051c.014.017,0,.048.022.07l.025.09a.7.7,0,0,0,.036.146l.017.076.025.107v.048a.417.417,0,0,1,0,.062.283.283,0,0,1,0,.048.22.22,0,0,1,0,.042v.076a.713.713,0,0,1,0,.076.768.768,0,0,1,0,.079.178.178,0,0,0,.014.084v.345h0v.2h0v.093C701.386,263.982,701.386,264.043,701.386,264.111Z" transform="translate(-529.375 -192.575)" opacity="0.1"/>
    <path id="Path_26" data-name="Path 26" d="M406.148,286.1a.366.366,0,0,1,0,.053v.508q0,.041,0,.081a1.21,1.21,0,0,1-.025.2c-.011.067,0,.087-.02.129h0a.448.448,0,0,1,0,.065v.143l-.017.067a.317.317,0,0,1,0,.051.142.142,0,0,1-.02.087h0a.446.446,0,0,0-.014.059.659.659,0,0,0-.02.07l-.025.087a.08.08,0,0,1,0,.025l-.025.087c-.028.093-.056.182-.09.281a.786.786,0,0,1-.031.087l-.017.048a6.15,6.15,0,0,1-.822,1.5l-.065.087a6.159,6.159,0,0,1-.525.6l-8.761,8.761-8.76-8.761a6.248,6.248,0,0,1-.688-.814c-.129-.185-.247-.376-.356-.561a6.2,6.2,0,0,1-.747-3.523,2.745,2.745,0,0,1,.036-.337c.028-.2.065-.393.112-.587a.6.6,0,0,1,.028-.118l.017-.059a.182.182,0,0,1,0-.036.331.331,0,0,1,.022-.087h0c.02-.067.039-.135.062-.2s.022-.062.031-.093q.07-.2.152-.387l.034-.079c.017-.036.034-.076.053-.115s.059-.124.09-.182v-.014h0l.042-.081.051-.093.067-.118.031-.053.02-.031h0l.042-.067c.014-.025.031-.051.048-.076l.109-.166.042-.059.051-.07c.017-.022.034-.048.053-.07a.99.99,0,0,1,.065-.087l.062-.076.02-.025.042-.053.07-.081.031-.034h0l.051-.059.059-.065.168-.177.067-.065.107-.1.07-.065.081-.073.056-.045.053-.048.112-.09.056-.045c.093-.07.188-.14.281-.208l.059-.039.059-.039.056-.034a.82.82,0,0,1,.081-.053l.039-.022.062-.036c.079-.048.16-.093.241-.135l.051-.028.025-.039.062-.031.062-.031.062-.028.065-.028.062-.028.258-.1.062-.022.067-.025.062-.022.053-.017.118-.036.059-.02.051-.014h.048l.084-.022.112-.028c.118-.031.233-.056.351-.076h.185l.084-.014h.051c.112,0,.227-.028.34-.036h.932l.281.028.121.014.081.014h.18c.118.02.236.045.351.073l.143.037h.039l.059.017.118.036.05.014c.087.028.171.056.255.09l.059.02.076.031.115.045.132.056.051.025.07.031.062.031.062.031.079.039.062.034.143.076.059.036c.07.039.14.081.208.126l.056.034.059.039.059.039h0a.2.2,0,0,1,.039.028q.124.084.244.177l.056.045.112.09.053.048.056.045.081.073.07.065.107.1.067.065.067-.065.1-.1.07-.065.084-.073.053-.045.056-.048.112-.09.056-.045c.093-.07.188-.14.281-.208l.059-.039.059-.039.053-.034.084-.053.039-.022.062-.036c.079-.048.16-.093.241-.135a.279.279,0,0,0,.048-.028l.076-.036.062-.031.065-.031.062-.028.065-.028.062-.028.255-.1.065-.022.067-.025.062-.022.051-.017.118-.036.062-.02.048-.014h.048l.087-.022.112-.028c.115-.031.233-.056.351-.076h.182l.087-.014h.051c.112,0,.225-.028.34-.036h.94l.281.028.124.014.081.014h.18c.118.02.233.045.351.073l.14.037h.039l.062.017.118.036.051.014c.087.028.171.056.255.09l.059.02.076.031.115.045.129.056.053.025.07.031.062.031.062.031.079.039.062.034.143.076.059.036c.07.039.14.081.208.126l.056.034.059.039.059.039h0l.039.028.244.177.056.045.112.09.053.048.056.045.07.065a.772.772,0,0,1,.07.065l.042.036h0l.07.065.028.028.039.036.067.07.1.107.059.065.1.109.1.121a4.652,4.652,0,0,1,.326.438l.042.062.042.067a.386.386,0,0,1,.036.056c.022.034.042.067.062.1l.053.09.034.059.025.045.025.045.034.065c.014.022.025.048.036.07a5.261,5.261,0,0,1,.219.48l.028.07q.042.1.076.2l.022.065a.39.39,0,0,0,.028.087l.025.079a.06.06,0,0,0,.014.048l.022.073a.843.843,0,0,1,.022.09c.014.048.025.1.039.143l.017.076.025.109v.045a.485.485,0,0,1,0,.062.333.333,0,0,1,0,.051.166.166,0,0,1,0,.039v.154a.7.7,0,0,1,0,.076v.087a.8.8,0,0,1,0,.081v.177a.844.844,0,0,1,0,.087h0a.338.338,0,0,0,0,.053v.149h0v.1C406.019,285.947,406.148,286.034,406.148,286.1Z" transform="translate(-316.957 -208.407)" fill="#ff6584"/>
    <path id="Path_27" data-name="Path 27" d="M406.329,286.1a.362.362,0,0,1,0,.053v.508q0,.041,0,.081a1.21,1.21,0,0,1-.025.2c-.011.067,0,.087-.02.129h0a.452.452,0,0,1,0,.065c0,.014,0,.025,0,.039v.1l-.017.067a.324.324,0,0,1,0,.051.142.142,0,0,1-.02.087h0a.446.446,0,0,0-.014.059.652.652,0,0,0-.02.07l-.025.087a.082.082,0,0,1,0,.025l-.025.087c-.028.093-.056.182-.09.281a.811.811,0,0,1-.031.087l-.017.048a6.048,6.048,0,0,0-2.81-6.667c-.11-.073-.225-.138-.337-.2a6.217,6.217,0,0,0-5.965,0,6.049,6.049,0,0,0-.587.368,6.2,6.2,0,0,0-.811.685,6.07,6.07,0,0,0-.758-.646h0a6.144,6.144,0,0,0-.64-.407,6.218,6.218,0,0,0-5.965,0,6.008,6.008,0,0,0-.879.589,6.185,6.185,0,0,0-.519.463,6.106,6.106,0,0,0-.679.806c-.124.174-.236.354-.34.536h0c-.1.174-.185.351-.264.53-.045.1-.084.2-.124.3a.6.6,0,0,1,.028-.118l.017-.059a.182.182,0,0,1,0-.036.332.332,0,0,1,.022-.087h0c.02-.067.039-.135.062-.2s.022-.062.031-.093q.07-.2.152-.387l.034-.079c.017-.036.034-.076.053-.115s.059-.124.09-.182v-.014h0l.042-.081.051-.093.067-.118.031-.053.02-.031h0l.042-.067c.014-.025.031-.051.048-.076l.109-.166.042-.059.051-.07c.017-.022.034-.048.053-.07a.99.99,0,0,1,.065-.087l.062-.076.02-.025.042-.053.07-.081.031-.034h0l.051-.059.059-.065.168-.177.067-.065.107-.1.07-.065.081-.073.056-.045.053-.048.112-.09.056-.045c.093-.07.188-.14.281-.208l.059-.039.059-.039.056-.034a.824.824,0,0,1,.081-.053l.039-.022.062-.036c.079-.048.16-.093.241-.135l.051-.028.126-.039.062-.031.062-.031.062-.028.065-.028.062-.028.258-.1.062-.022.067-.025.062-.022.053-.017.118-.036.059-.02.051-.014h.048l.084-.022.112-.028c.118-.031.233-.056.351-.076h.185l.084-.014h.051c.112,0,.227-.028.34-.036h.932l.281.028.121.014.081.014h.18c.118.02.236.045.351.073l.143.037h.039l.059.017.118.036.051.014c.087.028.171.056.255.09l.059.02.076.031.115.045.132.056.051.025.07.031.062.031.062.031.079.039.062.034.143.076.059.036c.07.039.14.081.208.126l.056.034.059.039.059.039h0a.2.2,0,0,1,.039.028q.123.084.244.177l.056.045.112.09.053.048.056.045.081.073.07.065.107.1.067.065.067-.065.1-.1.07-.065.084-.073.053-.045.056-.048.112-.09.056-.045c.093-.07.188-.14.281-.208l.059-.039.059-.039.053-.034.084-.053.039-.022.062-.036c.079-.048.16-.093.241-.135a.282.282,0,0,0,.048-.028l.076-.036.062-.031.065-.031.062-.028.065-.028.062-.028.255-.1.065-.022.067-.025.062-.022.051-.017.118-.036.062-.02.048-.014h.048l.087-.022.112-.028c.115-.031.233-.056.351-.076h.182l.087-.014h.051c.112,0,.225-.028.34-.036h.94l.281.028.124.014.081.014h.18c.118.02.233.045.351.073l.14.037h.039l.062.017.118.036.051.014c.087.028.171.056.255.09l.059.02.076.031.115.045.129.056.053.025.07.031.062.031.062.031.079.039.062.034.143.076.059.036c.07.039.14.081.208.126l.056.034.059.039.059.039h0l.039.028.244.177.056.045.112.09.053.048.056.045.07.065a.772.772,0,0,1,.07.065l.042.036h0l.07.065.028.028.039.036.067.07.1.107.059.065.1.109.1.121a4.651,4.651,0,0,1,.326.438l.042.062.042.067a.381.381,0,0,1,.036.056c.022.034.042.067.062.1l.053.09.034.059.025.045.025.045.034.065c.014.022.025.048.036.07q.121.234.219.48l.028.07q.042.1.076.2l.022.065a.391.391,0,0,0,.028.087l.025.079a.061.061,0,0,0,.014.048l.022.073a.851.851,0,0,1,.022.09c.014.048.025.1.039.143l.017.076.025.109v.045a.474.474,0,0,1,0,.062.325.325,0,0,1,0,.051.166.166,0,0,1,0,.039v.154a.7.7,0,0,1,0,.076v.087a.8.8,0,0,1,0,.081v.177a.853.853,0,0,1,0,.087h0a.342.342,0,0,0,0,.053c0,.02,0,.039,0,.056v.093h0v.1C406.2,285.947,406.329,286.034,406.329,286.1Z" transform="translate(-317.137 -208.407)" opacity="0.1"/>
    <path id="Path_28" data-name="Path 28" d="M396.468,445.364v.1a.384.384,0,0,1,0,.056v.3a.037.037,0,0,1,0,.017v.18l-.025.2a.3.3,0,0,1-.02.129h0v.1a.145.145,0,0,1,0,.034.528.528,0,0,1-.014.07.563.563,0,0,1-.014.067v.051a.16.16,0,0,1-.02.087h0l-.017.059-.017.073-.025.087v.022a.705.705,0,0,1-.028.09c-.025.09-.056.182-.087.281l-.031.084a.244.244,0,0,1-.02.048,6.064,6.064,0,0,1-.82,1.5l-.065.084a6.181,6.181,0,0,1-.528.6l-8.758,8.76-8.761-8.76a6.254,6.254,0,0,1-.688-.814,6.4,6.4,0,0,1-.357-.561,6.176,6.176,0,0,1-.747-3.523,2.207,2.207,0,0,1,.036-.334c.028-.2.065-.393.112-.589a.449.449,0,0,1,.028-.118l.017-.059v-.034l.025-.09h0c.022-.067.042-.135.065-.2l.031-.093c.048-.132.1-.261.152-.39l-.042-.079.051-.115c.031-.062.059-.124.093-.185v-.014h0l.045-.081.051-.093c.02-.039.042-.079.065-.115l.034-.056.017-.031h0c0-.022.025-.045.039-.067s.034-.051.048-.076l.112-.166c.014-.02.025-.039.039-.056l.051-.07.053-.073.067-.087.059-.076.022-.025.042-.053.07-.081.031-.034h0l.053-.059.081-.07c.053-.059.109-.118.168-.174l.067-.067.1-.1.07-.062.084-.073.053-.048.056-.045c.036-.031.073-.062.112-.09a.437.437,0,0,1,.056-.045c.093-.073.188-.143.281-.208l.059-.039a.428.428,0,0,1,.059-.039l.053-.036.084-.051.039-.025.062-.036c.079-.048.16-.093.241-.135l.048-.025.076-.039.062-.031.065-.028.062-.031.062-.028.065-.028.255-.1.065-.022.067-.025.062-.02.05-.017.118-.039.062-.02.048-.014h.048l.087-.025.112-.028c.115-.028.233-.053.351-.076h.32c.112-.014.225-.025.34-.034h.932l.281.025.124.017h.261c.118.02.233.045.351.073l.14.039h.039l.062.02.118.034.051.017c.087.025.171.056.255.087l.059.022.076.028.115.048.129.056.053.022.07.034.062.028.062.031.079.039.062.034.143.079.059.034c.07.042.14.081.208.126l.056.036.059.039.059.039h0l.039.025.244.18.056.045.112.09.053.045.056.048.081.073.07.062.1.1.07.067.067-.067.1-.1.07-.062.081-.073.056-.048.053-.045.112-.09.056-.045c.1-.073.191-.143.281-.208l.059-.039.059-.039.056-.037.081-.051.042-.025.059-.036.244-.135.048-.025.076-.039.062-.031.062-.028.065-.031.062-.028.065-.028.255-.1.065-.022.067-.025.062-.02.05-.017.118-.039.062-.02.048-.014h.048l.084-.025.115-.028c.115-.028.233-.053.351-.076h.317l.34-.034h.932a2.48,2.48,0,0,1,.281.025l.121.017h.264c.118.02.233.045.348.073l.143.039h.039l.062.02.118.034.051.017c.084.025.171.056.255.087l.056.022.076.028.115.048.132.056.051.022.07.034.065.028.062.031.079.039.062.034c.048.025.1.051.14.079l.062.034.208.126.056.036.059.039.056.039h0l.036.025c.084.059.166.118.244.18l.059.045.109.09.056.045.053.048.073.062.07.065.039.039h0l.067.065.031.031.036.037.067.067.1.109.059.062.1.109.1.121a5.057,5.057,0,0,1,.326.438l.042.062.042.067.036.059.062.1.053.093.034.056.025.045c0,.014.014.031.022.045s.025.045.036.067.022.045.036.067c.079.157.152.32.219.483,0,.022.02.045.028.07l.076.2.02.062a.27.27,0,0,0,.031.087.488.488,0,0,1,.022.079l.017.051.02.07.025.09c.014.048.025.1.036.146a.752.752,0,0,1,.02.076.8.8,0,0,0,.022.107v.859h0v.056a.392.392,0,0,0,0,.056v.093h0v.1C396.317,445.224,396.471,445.3,396.468,445.364Z" transform="translate(-309.985 -322.977)" fill="#ff6584"/>
    <path id="Path_29" data-name="Path 29" d="M396.737,445.364v.1a.384.384,0,0,1,0,.056v.3a.037.037,0,0,1,0,.017v.18l-.025.2a.3.3,0,0,1-.02.129h0v.1a.145.145,0,0,1,0,.034.519.519,0,0,1-.014.07.551.551,0,0,1-.014.067v.051a.16.16,0,0,1-.02.087h0l-.017.059-.017.073-.025.087v.022a.705.705,0,0,1-.028.09c-.025.09-.056.182-.087.281l-.031.084a.246.246,0,0,1-.02.048,6.015,6.015,0,0,0,.171-1.5,6.09,6.09,0,0,0-.211-1.558,6.223,6.223,0,0,0-2.661-3.621c-.112-.07-.225-.138-.34-.2a6.2,6.2,0,0,0-5.962,0,5.888,5.888,0,0,0-.589.368,5.949,5.949,0,0,0-.881.685,6.283,6.283,0,0,0-.758-.646h0a6.428,6.428,0,0,0-.64-.4,6.2,6.2,0,0,0-6.846.587,6.62,6.62,0,0,0-.516.463,6.109,6.109,0,0,0-.679.806,5.724,5.724,0,0,0-.34.536h0a5.824,5.824,0,0,0-.264.53c-.045.1-.087.2-.124.3a.45.45,0,0,1,.028-.118l.017-.059v-.034l.025-.09h0c.022-.067.042-.135.065-.2l.031-.093c.048-.132.1-.261.152-.39l.025-.065.051-.115.093-.185v-.014h0l.045-.081.051-.093c.02-.039.042-.079.065-.115l.034-.056.017-.031h0c0-.022.025-.045.039-.067s.034-.051.048-.076l.112-.166c.014-.02.025-.039.039-.056l.051-.07.053-.073.067-.087.059-.076.022-.025.042-.053.07-.081.031-.034h0l.053-.059.081-.07c.053-.059.109-.118.168-.174l.067-.067.1-.1.07-.062.084-.073.053-.048.056-.045c.036-.031.073-.062.112-.09a.434.434,0,0,1,.056-.045c.093-.073.188-.143.281-.208l.059-.039a.43.43,0,0,1,.059-.039l.053-.036.084-.051.039-.025.062-.036c.079-.048.16-.093.241-.135l.048-.025.076-.039.062-.031.065-.028.062-.031.062-.028.065-.028.255-.1.065-.022.067-.025.062-.02.051-.017.118-.039.062-.02.048-.014h.048l.087-.025.112-.028c.115-.028.233-.053.351-.076h.32c.112-.014.225-.025.34-.034h.932l.281.025.124.017h.261c.118.02.233.045.351.073l.14.039h.039l.062.02.118.034.051.017c.087.025.171.056.255.087l.059.022.076.028.115.048.129.056.053.022.07.034.062.028.062.031.079.039.062.034.143.079.059.034c.07.042.14.081.208.126l.056.036.059.039.059.039h0l.039.025.244.18.056.045.112.09.053.045.056.048.081.073.07.062.1.1.07.067.067-.067.1-.1.07-.062.081-.073.056-.048.053-.045.112-.09.056-.045c.1-.073.191-.143.281-.208l.059-.039.059-.039.056-.037.081-.051.042-.025.059-.036.244-.135.048-.025.076-.039.062-.031.062-.028.065-.031.062-.028.065-.028.255-.1.065-.022.067-.025.062-.02.051-.017.118-.039.062-.02.048-.014h.048l.084-.025.115-.028c.115-.028.233-.053.351-.076h.317l.34-.034H391a2.48,2.48,0,0,1,.281.025l.121.017h.264c.118.02.233.045.348.073l.143.039h.039l.062.02.118.034.05.017c.084.025.171.056.255.087l.056.022.076.028.115.048.132.056.051.022.07.034.065.028.062.031.079.039.062.034c.048.025.1.051.14.079l.062.034.208.126.056.036.059.039.056.039h0l.036.025c.084.059.166.118.244.18l.059.045.109.09.056.045.053.048.073.062.07.065.039.039h0l.067.065.031.031.036.037.067.067.1.109.059.062.1.109.1.121a5.069,5.069,0,0,1,.326.438l.042.062.042.067.036.059.062.1.053.093.034.056.025.045c0,.014.014.031.022.045s.025.045.036.067.022.045.036.067c.079.157.152.32.219.483,0,.022.02.045.028.07l.076.2.02.062a.27.27,0,0,0,.031.087.485.485,0,0,1,.022.079l.017.051.02.07.025.09c.014.048.025.1.036.146a.761.761,0,0,1,.02.076.81.81,0,0,0,.022.107v.859h0v.056a.392.392,0,0,0,0,.056v.093h0v.1C396.585,445.224,396.74,445.3,396.737,445.364Z" transform="translate(-310.254 -322.977)" opacity="0.1"/>
    <path id="Path_30" data-name="Path 30" d="M495.521,347.745v.07a.166.166,0,0,1,0,.036v.295a.41.41,0,0,1,0,.056l-.017.14-.017.09h0v.045a.1.1,0,0,1,0,.028v.154a.614.614,0,0,0,0,.062h0v.039a.077.077,0,0,1-.014.053l-.017.062v.014l-.017.065c-.02.065-.042.129-.065.191s0,.042-.02.062l-.014.034a4.426,4.426,0,0,1-.578,1.058l-.048.059a4.052,4.052,0,0,1-.371.424l-6.189,6.189-6.189-6.189a4.39,4.39,0,0,1-1.266-3.467,1.775,1.775,0,0,1,.028-.239,4.128,4.128,0,0,1,.079-.413.457.457,0,0,1,.02-.084.236.236,0,0,0,0-.042v-.025l.017-.062h0c.014-.051.031-.1.045-.143l.022-.067c.034-.093.067-.182.107-.281l.025-.053c0-.028.022-.053.036-.081l.062-.129h0a.6.6,0,0,0,.031-.059l.036-.065a.773.773,0,0,1,.048-.081.178.178,0,0,1,.022-.039v-.022h0l.031-.045.034-.053.079-.118.028-.042.034-.048.039-.053.048-.059a.384.384,0,0,1,.042-.053l.014-.02.031-.036c.017-.02.031-.039.048-.056l.022-.025h0l.036-.039.042-.048.118-.123.048-.048.076-.07a.36.36,0,0,0,.048-.045l.059-.051.039-.034.039-.031.079-.065.039-.031.2-.149.042-.028.042-.025.039-.025.056-.036.031-.017.042-.025c.056-.034.112-.067.171-.1l.034-.02.053-.028.045-.02.045-.022.042-.02.045-.02.045-.02.182-.073.045-.017.048-.017.042-.017h.036l.084-.028h.109l.062-.017.079-.02c.084-.022.166-.039.25-.053h.225c.079,0,.16-.02.239-.025h.665l.191.02h.272c.081.014.166.031.247.051l.1.028h.07l.084.022h.034l.182.062.039.017.053.02.081.034.093.039.036.017.051.022.045.022.042.02.056.028.042.025.1.053.042.025.149.09.039.025.039.025.042.028h0l.028.02c.059.039.115.081.171.126l.039.031.081.065.036.031.039.034.059.051.05.045a.848.848,0,0,0,.073.07l.048.048.048-.048a.851.851,0,0,0,.073-.07l.051-.045.059-.051.039-.034.036-.031.081-.065.039-.031c.065-.051.132-.1.2-.149l.042-.028.039-.025.039-.025.059-.037.028-.017.042-.025c.059-.034.115-.067.174-.1l.034-.02.053-.028.042-.02.045-.022.045-.02.045-.02.045-.02.18-.073.045-.017.048-.017.045-.017h.036l.081-.028h.112l.059-.017.081-.02c.081-.022.166-.039.247-.053h.227c.079,0,.157-.02.239-.025h.665l.191.02H492l.244.051.1.028h.073l.081.022h.036l.18.062.042.017.053.02.081.034.093.039.036.017.048.022.045.022.045.02.053.028.045.025.1.053.042.025c.051.028.1.059.146.09l.039.025.042.025.042.028h0l.025.02c.059.039.118.081.174.126l.039.031a.866.866,0,0,1,.079.065l.039.031.039.034.051.045.05.045.028.028h0l.048.048.02.02.028.025.048.051.073.076.039.045.067.076.073.087c.081.1.157.2.23.309l.028.042c0,.017.02.034.031.048l.025.042c.014.022.031.045.045.07l.036.065a.278.278,0,0,1,.022.039l.02.031.017.034.025.048.025.048c.056.109.107.225.154.34l.02.051c.02.048.036.093.053.143a.252.252,0,0,1,.014.042.069.069,0,0,0,.022.062l.017.056a.26.26,0,0,0,0,.036.07.07,0,0,0,.014.051l.017.062a.452.452,0,0,0,.028.1c.008.034,0,.036,0,.056l.017.076v.076a.141.141,0,0,0,0,.034v.253a.413.413,0,0,1,0,.059v.031a.425.425,0,0,0,0,.062.119.119,0,0,0,0,.031v.062h0a.2.2,0,0,1,0,.039.184.184,0,0,1,0,.039.539.539,0,0,1,0,.067h0a.539.539,0,0,1,0,.067Z" transform="translate(-385.713 -254.082)" fill="#ff6584"/>
    <path id="Path_31" data-name="Path 31" d="M495.906,347.7v.07a.159.159,0,0,1,0,.036v.295a.431.431,0,0,1,0,.056l-.017.14-.017.09h0v.045a.1.1,0,0,1,0,.028v.154q0,.031,0,.062h0v.039a.077.077,0,0,1-.014.053l-.017.062v.014l-.017.065c-.02.065-.042.129-.065.191s0,.042-.02.062l-.014.034a4.368,4.368,0,0,0,.121-1.061,4.461,4.461,0,0,0-.149-1.1,4.39,4.39,0,0,0-1.123-1.965,4.453,4.453,0,0,0-.749-.6c-.079-.048-.157-.1-.239-.14a4.387,4.387,0,0,0-4.21,0,4.884,4.884,0,0,0-.415.258,4.617,4.617,0,0,0-.561.483,4.5,4.5,0,0,0-.533-.455h0a3.865,3.865,0,0,0-.455-.281,4.387,4.387,0,0,0-4.211,0,4.274,4.274,0,0,0-.62.415,4.437,4.437,0,0,0-.365.326,4.6,4.6,0,0,0-.483.561c-.087.123-.166.25-.239.379h0a3.929,3.929,0,0,0-.188.376c-.031.07-.059.14-.087.213a.456.456,0,0,1,.02-.084.231.231,0,0,0,0-.042v-.025l.017-.062h0c.014-.051.031-.1.045-.143l.022-.067c.034-.093.067-.182.107-.281l.025-.053c0-.028.022-.053.036-.081l.062-.129h0a.6.6,0,0,0,.031-.059l.037-.065a.768.768,0,0,1,.048-.081.18.18,0,0,1,.022-.039v-.022h0l.031-.045.034-.053.079-.118.028-.042.034-.048.039-.053.048-.059a.388.388,0,0,1,.042-.053l.014-.02.031-.036c.017-.02.031-.039.048-.056l.022-.025h0l.036-.039.042-.048.118-.124.048-.048.076-.07a.359.359,0,0,0,.048-.045l.059-.051.039-.034.039-.031.079-.065.039-.031.2-.149.042-.028.042-.025.039-.025.056-.036.031-.017.042-.025c.056-.034.112-.067.171-.1l.034-.02.053-.028.045-.02.045-.022.042-.02.045-.02.045-.02.182-.073.045-.017.048-.017.042-.017h.037l.084-.028h.109l.062-.017.079-.02c.084-.022.166-.039.25-.053h.225c.079,0,.16-.02.239-.025h.665l.191.02h.272c.081.014.166.031.247.051l.1.028h.07l.084.022h.034l.182.062.039.017.053.02.081.034.093.039.036.017.051.022.045.022.042.02.056.028.042.025.1.053.042.025.149.09.039.025.039.025.042.028h0l.028.02c.059.039.115.081.171.126l.039.031.081.065.036.031.039.034.059.051.051.045a.866.866,0,0,0,.073.07l.048.048.048-.048a.866.866,0,0,0,.073-.07l.051-.045.059-.051.039-.034.036-.031.081-.065.039-.031c.065-.051.132-.1.2-.149l.042-.028.039-.025.039-.025.059-.036.028-.017.042-.025c.059-.034.115-.067.174-.1l.034-.02.053-.028.042-.02.045-.022.045-.02.045-.02.045-.02.18-.073.045-.017.048-.017.045-.017h.037l.081-.028h.112l.059-.017.081-.02c.081-.022.166-.039.247-.053h.227c.079,0,.157-.02.239-.025h.665l.191.02h.272l.244.051.1.028h.073l.081.022h.036l.18.062.042.017.053.02.081.034.093.039.037.017.048.022.045.022.045.02.053.028.045.025.1.053.042.025c.05.028.1.059.146.09l.039.025.042.025.042.028h0l.025.02c.059.039.118.081.174.126l.039.031a.872.872,0,0,1,.079.065l.039.031.039.034.05.045.051.045.028.028h0l.048.048.02.02.028.025.048.051.073.076.039.045.067.076.073.087c.081.1.157.2.23.309l.028.042c0,.017.02.034.031.048l.025.042c.014.022.031.045.045.07l.036.065a.284.284,0,0,1,.022.039l.02.031.017.034.025.048.025.048c.056.109.107.225.154.34l.02.051c.02.048.036.093.053.143a.239.239,0,0,1,.014.042.069.069,0,0,0,.023.062l.017.056a.26.26,0,0,0,0,.036.07.07,0,0,0,.014.051l.017.062a.45.45,0,0,0,.028.1.123.123,0,0,1,0,.056l.017.076v.076a.135.135,0,0,0,0,.034v.253a.422.422,0,0,1,0,.059v.031a.417.417,0,0,0,0,.062.111.111,0,0,0,0,.031c0,.02,0,.039,0,.062h0a.2.2,0,0,1,0,.039.188.188,0,0,1,0,.039.539.539,0,0,1,0,.067h0a.564.564,0,0,1,0,.067Z" transform="translate(-386.097 -254.039)" opacity="0.1"/>
    <path id="Path_32" data-name="Path 32" d="M731.617,432.161v.07a.2.2,0,0,1,0,.039v.112a.7.7,0,0,0,0,.076v.107a.383.383,0,0,1,0,.056l-.017.14v.093h0v.045a.084.084,0,0,1,0,.028v.025a.366.366,0,0,1,0,.048v.146h0a.243.243,0,0,0,0,.042v.051l-.017.062v.017a.522.522,0,0,0-.02.062c-.02.065-.039.129-.062.194a.51.51,0,0,0-.022.059l-.014.034a4.376,4.376,0,0,1-.578,1.058l-.045.059a4.451,4.451,0,0,1-.373.424L724.28,441.4l-6.175-6.189a4.058,4.058,0,0,1-.486-.575,4.014,4.014,0,0,1-.253-.4,4.381,4.381,0,0,1-.528-2.49,1.122,1.122,0,0,1,.025-.236,4.153,4.153,0,0,1,.079-.415.121.121,0,0,1,.022-.084.231.231,0,0,1,0-.042.084.084,0,0,1,0-.025l.017-.062h0a.562.562,0,0,1,.045-.143.622.622,0,0,0,.022-.067c.034-.093.07-.182.107-.281l.025-.056a.229.229,0,0,1,.037-.081c.014-.028.042-.087.064-.129h0l.028-.059.037-.065c.017-.028.031-.056.048-.081a.276.276,0,0,1,.023-.039s0-.014,0-.022h0c0-.017.02-.034.031-.048l.034-.053.079-.118.028-.039.037-.051.036-.051.048-.062.042-.053v-.02l.031-.036.048-.056.022-.025h0l.036-.042.042-.045c.039-.042.079-.084.121-.124a.381.381,0,0,1,.048-.048.879.879,0,0,1,.073-.07l.051-.045a.5.5,0,0,1,.056-.053l.039-.034.039-.031.079-.065.039-.031c.067-.05.135-.1.2-.146l.042-.028.042-.028.039-.025.059-.036.028-.017.042-.025.171-.1.034-.02.053-.025.045-.022.045-.02.045-.022.042-.02.045-.02.182-.073.045-.017.048-.017.042-.014.037-.014.084-.025h.109l.062-.017.079-.02c.084-.02.166-.039.25-.053h.224l.241-.025h.662l.194.02h.269a2.424,2.424,0,0,1,.247.053l.1.025h.07l.084.025h.036l.18.062h.039l.053.02.081.034.093.039.036.017.05.025.045.02.042.022.056.028.045.022.1.056.045.022.146.09.039.025.042.028.039.028h0l.028.02.171.126.042.031.079.065.039.031.036.034.059.053.051.045.073.07a.382.382,0,0,1,.048.048c.017-.017.031-.034.048-.048l.076-.07a.361.361,0,0,1,.048-.045l.059-.053.039-.034.039-.031.079-.065.039-.031c.067-.051.135-.1.2-.146l.042-.028.042-.028.039-.025.056-.036.031-.017.042-.025.171-.1.034-.02.053-.025.045-.022.042-.02.045-.022.045-.02.045-.02.18-.073.045-.017.048-.017.045-.014.036-.014.084-.025h.109l.062-.017.079-.02c.081-.02.166-.039.247-.053h.227l.239-.025h.665l.191.02h.272c.081.014.166.031.247.053l.1.025h.07l.081.025h.036l.18.062h.042l.053.02.081.034.093.039.037.017.05.025.042.02.045.022.056.028.042.022.1.056.042.022c.051.028.1.059.146.09l.039.025.042.028.042.028h0l.028.02.171.126.039.031.079.065.039.031.039.034.051.045.05.045a.273.273,0,0,0,.028.028h0c0,.017.031.031.048.048l.022.02.025.028.048.048.073.076.039.045a.9.9,0,0,1,.067.079l.073.084c.081.1.157.2.23.309,0,.014.02.028.028.045l.031.045.025.042c.017.022.031.048.045.07l.036.065.025.039.017.034.017.031.025.048.025.048c.056.112.11.225.154.34a.373.373,0,0,1,.02.051c.02.048.037.1.053.143l.017.045a.487.487,0,0,0,.02.059l.017.056v.087l.017.062a.476.476,0,0,0,.028.1c.008.034,0,.034,0,.053l.017.076v.606h0a.158.158,0,0,0,0,.036v.039a.539.539,0,0,1,0,.067h0a.54.54,0,0,1,0,.067Z" transform="translate(-555.567 -314.785)" fill="#ff6584"/>
    <path id="Path_33" data-name="Path 33" d="M731.954,432.175v.07a.2.2,0,0,1,0,.039v.112a.729.729,0,0,0,0,.076v.107a.384.384,0,0,1,0,.056l-.017.14v.093h0v.045a.087.087,0,0,1,0,.028v.025a.366.366,0,0,1,0,.048v.146h0a.243.243,0,0,0,0,.042v.05l-.017.062v.017a.52.52,0,0,0-.02.062c-.02.065-.039.129-.062.194a.506.506,0,0,0-.022.059l-.014.034a4.368,4.368,0,0,0-1.909-4.71c-.079-.051-.157-.1-.239-.143a4.387,4.387,0,0,0-4.21,0,4.28,4.28,0,0,0-.415.261,4.39,4.39,0,0,0-.561.483,4.306,4.306,0,0,0-.533-.458h0a5.093,5.093,0,0,0-.452-.281,4.393,4.393,0,0,0-4.21,0,4.509,4.509,0,0,0-.62.415,4.012,4.012,0,0,0-.365.328,4.152,4.152,0,0,0-.48.561,3.655,3.655,0,0,0-.241.382h0c-.07.124-.132.25-.188.376-.031.07-.059.14-.087.213a.12.12,0,0,1,.023-.084.231.231,0,0,1,0-.042.08.08,0,0,1,0-.025l.017-.062h0a.56.56,0,0,1,.045-.143.634.634,0,0,0,.022-.067c.034-.093.07-.182.107-.281l.025-.056a.229.229,0,0,1,.036-.081c.014-.028.042-.087.065-.129h0l.028-.059.037-.065c.017-.028.031-.056.048-.081a.276.276,0,0,1,.022-.039v-.022h0c0-.017.02-.034.031-.048l.034-.053.079-.118.028-.039.036-.051.036-.051.048-.062.042-.053v-.02l.031-.037.048-.056.022-.025h0l.036-.042.042-.045c.039-.042.079-.084.121-.124a.394.394,0,0,1,.048-.048.856.856,0,0,1,.073-.07l.051-.045a.5.5,0,0,1,.056-.053l.039-.034.039-.031.079-.065.039-.031c.067-.051.135-.1.2-.146l.042-.028.042-.028.039-.025.059-.036.028-.017.042-.025.171-.1.034-.02.053-.025.045-.022.045-.02.045-.022.042-.02.045-.02.182-.073.045-.017.048-.017.042-.014.037-.014.084-.025h.109l.062-.017.079-.02c.084-.02.166-.039.25-.053h.225l.241-.025h.663l.194.02h.269a2.413,2.413,0,0,1,.247.053l.1.025h.07l.084.025h.036l.18.062h.039l.053.02.081.034.093.039.036.017.05.025.045.02.042.022.056.028.045.022.1.056.045.022.146.09.039.025.042.028.039.028h0l.028.02.171.126.042.031.079.065.039.031.036.034.059.053.051.045.073.07a.383.383,0,0,1,.048.048c.017-.017.031-.034.048-.048l.076-.07a.361.361,0,0,1,.048-.045l.059-.053.039-.034.039-.031.079-.065.039-.031c.067-.051.135-.1.2-.146l.042-.028.042-.028.039-.025.056-.036.031-.017.042-.025.171-.1.034-.02.053-.025.045-.022.042-.02.045-.022.045-.02.045-.02.18-.073.045-.017.048-.017.045-.014.036-.014.084-.025h.109l.062-.017.079-.02c.081-.02.166-.039.247-.053h.227l.239-.025h.665l.191.02h.272c.081.014.166.031.247.053l.1.025h.07l.081.025h.036l.18.062h.042l.053.02.081.034.093.039.036.017.051.025.042.02.045.022.056.028.042.022.1.056.042.022c.051.028.1.059.146.09l.039.025.042.028.042.028h0l.028.02.171.126.039.031.079.065.039.031.039.034.05.045.051.045a.256.256,0,0,0,.028.028h0c0,.017.031.031.048.048l.023.02.025.028.048.048.073.076.039.045a.893.893,0,0,1,.067.079l.073.084c.081.1.157.2.23.309,0,.014.02.028.028.045l.031.045.025.042c.017.022.031.048.045.07l.036.065.025.039.017.034.017.031.025.048.025.048c.056.112.109.225.154.34a.384.384,0,0,1,.02.051c.02.048.036.1.053.143l.017.045a.47.47,0,0,0,.02.059l.017.056v.087l.017.062a.476.476,0,0,0,.028.1c.008.034,0,.034,0,.053l.017.076v.606h0a.166.166,0,0,0,0,.037v.039a.528.528,0,0,1,0,.067h0a.528.528,0,0,1,0,.067Z" transform="translate(-555.903 -314.799)" opacity="0.1"/>
    <path id="Path_34" data-name="Path 34" d="M550.513,271.358h0a32.3,32.3,0,0,0-2.852-2.568c.121-1.5.4-5.106.427-5.8.028-.879-1.266-2-4.034-3.037s-1.965,3.8-1.926,4.23a3.257,3.257,0,0,0,1.684,2.184c.373.154.474.348.449.531l-.087-.014a10.827,10.827,0,0,1-3.3-.808,17.445,17.445,0,0,0-.842,3.739V270a1.444,1.444,0,0,0,.067.651h.194a2.113,2.113,0,0,1-.154.96h0a7.436,7.436,0,0,1-.281.691,19.309,19.309,0,0,1-.132-2.08,17.55,17.55,0,0,0-1.027-3.41,4.774,4.774,0,0,1-1.384-1.258,5.523,5.523,0,0,0-2.321-1.752c-.637-.225-2.947-3.231-3.9-3.93-.758-.561-1.064-.23-1.156-.073l-.056.039a3.326,3.326,0,0,1-.755-1.611c0-.306.031-.935.087-1.732a7.3,7.3,0,0,1,.921.842c.646.716,1.123,1.569,1.827,2.229a2.975,2.975,0,0,0,2.015.881,1.862,1.862,0,0,0,.73-.115c.938-.362,1.541-1.5,2.526-1.549.775.039,1.345.755,1.979,1.227a2.652,2.652,0,0,0,1.631.561,1.857,1.857,0,0,0,.688-.109,1.473,1.473,0,0,0,.9-1.875c-.516-1.089-2.274-.842-3.023-1.791a.741.741,0,0,1-.174-.7.486.486,0,0,1,.455-.331,1.583,1.583,0,0,1,.94.449c.365.37.842.842,1.294.792a.615.615,0,0,0,.368-.07c.014-.334.031-.668.045-1a3.5,3.5,0,0,0,1.561.444,1.827,1.827,0,0,0,.3-.014,1.221,1.221,0,0,0,1.089-1.2,1.362,1.362,0,0,0,.935.312,1.274,1.274,0,0,0,.449-.056,1.359,1.359,0,0,0,.909-1.168,2.665,2.665,0,0,0-.71-1.684l-1.836-2.509a1.016,1.016,0,0,1-.281-.724,1.506,1.506,0,0,1,.314-.561,1.959,1.959,0,0,0-.382-2.414,3.4,3.4,0,0,0-2.448-.811,3.212,3.212,0,0,1-1.94-.253,2.21,2.21,0,0,1-.758-1.322c-.39-1.476-.413-3.026-.685-4.528a6.212,6.212,0,0,0-2.077-3.961,1.922,1.922,0,0,0-.963-.421,6.832,6.832,0,0,0-.893.073,3.261,3.261,0,0,1-2.549-1.432,22.721,22.721,0,0,0-1.855-2.406,4.529,4.529,0,0,0-4.306-1c-.657.182-1.179.716-1.858.744a22.218,22.218,0,0,1-3.071-.281,8.483,8.483,0,0,0-2.807.062,2.987,2.987,0,0,0-1.965,1.457l-.239-2.024a35.329,35.329,0,0,0-.716-4.129,1.029,1.029,0,0,1,.028-.9l.045.042c.034-.1.07-.2.107-.309a.735.735,0,0,0,0-.236,43.137,43.137,0,0,0-1.305-5.645h-1.252a1.009,1.009,0,0,0-.031-.18,33.887,33.887,0,0,0-1.4-5.833,3.479,3.479,0,0,1-.253-1.886,15.13,15.13,0,0,0,.059-2.226,6.094,6.094,0,0,1,.051-1.072,1.5,1.5,0,0,0-.6-1.4c-1.642-1.218-5.634-3.991-7.969-4.062-2.992-.09.938,5.162.893,5.656s2.992.943,2.992.943.18,1.524.359,2.378c.124.592.331,4.985.449,7.621a8.37,8.37,0,0,1-2.013-.755s-3.483-.94-3.8,0,4.244,5.476,4.244,5.476,1.608,4.264,1.123,5.614-.135,7.719-.135,7.719.045,7.579.379,9.516a3.73,3.73,0,0,1-.6,3.006s-.4,4.758,0,5.207a13.9,13.9,0,0,1,1.1,1.766l.118.213c-1.319,1.611-2.63,3.152-3.318,3.368-1.339.4-10.492,4.21-10.492,4.21s-2.989,2.857-3.441,2.857,2.723,3.054,2.723,3.054,2.857,2.288,3.172,2.647,8.14,4.623,8.14,4.623,1.342.4,1.474.808,1.92,1.524,1.92,1.524a11.661,11.661,0,0,1,1.729,2.594.6.6,0,0,0,.02.194c.017.281.036.41.053.342.239.657,1.847,2.333,1.072,3.528-.359.561,0,1.569.693,2.383a8.561,8.561,0,0,1-.73,2.526c-.536.719-.3,1.735-.842,1.855s-.716,2.754-.716,2.754l-.463,5.8s-.121,1.2-.775,1.5,0,1.914,0,1.914-.7,1.375-.281,2.153-.842,4.37-.842,4.37-.536,6.942,0,7.9a7.861,7.861,0,0,1,.842,3.051c0,.6.3,11.789.3,11.789s-.716,4.547-.954,5.384.657,2.695.062,3.649a7.084,7.084,0,0,0-.477,3.11s-.893,8.438-.357,11.551-.171,3.77-.171,3.77a6.381,6.381,0,0,0,1.156.511c.014.118.028.244.042.373.281,2.61.693,7.107.317,8.14a16.413,16.413,0,0,0-.519,4.087v.182h0l-1.041,1.684a5.389,5.389,0,0,1-.477,1.723c-.27.239-2.507,4.3-2.807,4.822l-.031.056s-2.262,4.16,3.335,4.278,4.881-2.751,4.881-2.751.017-.561.07-1.249a6.028,6.028,0,0,1,.407-2.133A29.978,29.978,0,0,0,513.329,379v-3.3h-.359a.578.578,0,0,1,.02-.18,12.424,12.424,0,0,1,.312-2.035,12.6,12.6,0,0,0-.387-2.933,66.022,66.022,0,0,1,.677-7.893c.025-.135.05-.267.076-.393a9.535,9.535,0,0,0,1.2-.629s0-6.1.716-7.18.564-4.129.564-4.129.177-2.692.713-3.231.41-2.933.41-2.933.474-1.555,1.01-2.807a24.306,24.306,0,0,0,.842-4.786,6.073,6.073,0,0,1,.842-1.738c.6-.842,0-2.692,0-2.692a3.278,3.278,0,0,1-.236-2.394c.418-1.2,2.737-10.891,2.737-10.891l.9-3.469,1.308,4.427a30.4,30.4,0,0,0,0,4.07,12.7,12.7,0,0,0,1.429,2.807v9.395s.121,6.344.6,7.36a23.627,23.627,0,0,1,.713,4.789s1.608,11.071.6,12.685a9.688,9.688,0,0,0,1.645.9v6.521s-1.168,3.947-.769,6.633a1.037,1.037,0,0,0,.025.16c-.107.079-.225.146-.3.118l.188,4.491a13.9,13.9,0,0,1-.427,3.8,5.414,5.414,0,0,0-.281,1.426c-.1,1.777.581,4.21,4.491,3.958,5.207-.331,4.4-3.649,4.4-3.649s0-.129-.02-.356a13.53,13.53,0,0,0-1.291-4.878,12.282,12.282,0,0,1-1.07-5.507,1.927,1.927,0,0,1-.317.084.813.813,0,0,1,.014-.182c.067-.842.171-1.934.281-2.445a16.017,16.017,0,0,0,0-2.989l.671-6.554.037-.365a5.372,5.372,0,0,0,.924-.561h0a6.714,6.714,0,0,1-.345-1.825,1.611,1.611,0,0,1,.345-1.154c.775-.778,1.308-10.532,1.308-10.532s.421-3.433.424-4.592v-.208c-.048-.7-.418-3.436-.413-5.033a3.164,3.164,0,0,1,.115-1c.356-.9.842-17.774.842-17.774l.6-7.478v-6.142a36.231,36.231,0,0,0-1.066-8.729c1.624.85,4.406,2.765,4.914,2.254.626-.629.938-11.4.758-12.477a1.129,1.129,0,0,0-.042-.219c-.042-.2-.1-.46-.18-.766l.247-.429c1.221-2.114,3.088-5.471,3.236-6.456a42.586,42.586,0,0,1,.811-5.316,2.47,2.47,0,0,1,.121-.3h0c.109-.222.227-.342.362-.309.761.18,1.252.763,1.653.539a.2.2,0,0,0,.053-.045h0a.674.674,0,0,0,.1-.143h0a1.415,1.415,0,0,0,.093-.2h0c.028-.073.053-.154.079-.241v-.025a.53.53,0,0,1,.028-.109.166.166,0,0,0,0-.036.387.387,0,0,1,.023-.1l.017-.07v-.036c.07-.317.123-.646.157-.876a1.175,1.175,0,0,1,.028-.208v-.112Z" transform="translate(-393.019 -152.665)" fill="url(#linear-gradient)"/>
    <path id="Path_35" data-name="Path 35" d="M559.322,489.492a.956.956,0,0,0-.062-.5C559.28,489.394,559.3,489.579,559.322,489.492Z" transform="translate(-442.232 -358.791)" fill="url(#linear-gradient-2)"/>
    <path id="Path_36" data-name="Path 36" d="M674.836,416.8s1.061-.724.025-1.151a3.254,3.254,0,0,1-1.684-2.173c-.039-.432-.842-5.238,1.926-4.21s4.062,2.145,4.034,3.02-.477,6.428-.477,6.428Z" transform="translate(-524.073 -301.339)" fill="#fbbebe"/>
    <path id="Path_37" data-name="Path 37" d="M675.338,436.587a1.646,1.646,0,0,1-.042.32c-.081.561-.281,1.718-.584,1.883-.4.225-.893-.356-1.653-.536-.135-.031-.253.087-.362.309a2.621,2.621,0,0,0-.121.3,42.336,42.336,0,0,0-.811,5.294c-.152.985-2.015,4.328-3.236,6.431-.182.317-.354.606-.5.842-.337.561-.561.929-.561.929l-3.088-5.788v-8.536a7.575,7.575,0,0,0,.561-1.182h0a2.084,2.084,0,0,0,.154-.954.489.489,0,0,0-.132-.281.335.335,0,0,1-.059-.087.438.438,0,0,1-.028-.073.927.927,0,0,1-.039-.219v-.185a17.35,17.35,0,0,1,.842-3.722,10.443,10.443,0,0,0,3.3.8C671.26,432.4,675.338,436.587,675.338,436.587Z" transform="translate(-517.845 -317.316)" fill="#6c63ff"/>
    <path id="Path_38" data-name="Path 38" d="M676.468,437.85c-.081.561-.281,1.718-.584,1.883-.4.225-.893-.356-1.653-.536-.135-.031-.253.087-.362.309a2.637,2.637,0,0,0-.121.3c-1.535-.747-4.21-2.1-4.382-2.481s-2.035-.469-3.088-.486h-.191a1.423,1.423,0,0,1-.067-.648,19.479,19.479,0,0,1,.842-3.548,10.44,10.44,0,0,0,3.3.8C672.314,433.69,676.041,437.417,676.468,437.85Z" transform="translate(-519.017 -318.259)" opacity="0.1"/>
    <path id="Path_39" data-name="Path 39" d="M676.554,436.569s-.225,1.979-.626,2.2-.893-.357-1.653-.533c-.135-.034-.253.084-.362.306-1.513-.735-4.337-2.15-4.491-2.54s-2.279-.48-3.278-.491c-.368-.769.775-4.21.775-4.21a10.478,10.478,0,0,0,3.3.806C672.5,432.375,676.554,436.569,676.554,436.569Z" transform="translate(-519.061 -317.295)" fill="#6c63ff"/>
    <path id="Path_40" data-name="Path 40" d="M642.944,447.8c-.626.626-4.69-2.411-5.8-2.591s-5.165-17.145-5.165-17.145l.609-9.561-2.375-8.8-.309-1.151s.236-.7,1.19,0,3.273,3.694,3.9,3.916a5.591,5.591,0,0,1,2.321,1.746,4.73,4.73,0,0,0,1.384,1.249,17.446,17.446,0,0,1,1.027,3.394c-.045.668.359,5.227.842,5.628s1.294,4.065,1.294,4.065,1.477,5.145,1.788,6.613a2.052,2.052,0,0,1,.042.219C643.882,436.462,643.57,447.179,642.944,447.8Z" transform="translate(-493.043 -300.714)" fill="#6c63ff"/>
    <path id="Path_41" data-name="Path 41" d="M647.083,473.33l2.947.789s.561,5.092.769,5.361.926,10.717.926,10.717l-4.643-2.1-1.743-5.614v-6.212Z" transform="translate(-504.149 -347.527)" opacity="0.1"/>
    <path id="Path_42" data-name="Path 42" d="M556.481,765.067a9.944,9.944,0,0,0-.424,1.684,63.622,63.622,0,0,0-.677,7.859,12.619,12.619,0,0,1,.387,2.919,12.254,12.254,0,0,0-.312,2.024c-.048.438-.076.772-.076.772l-5.451-.356s0-.323.017-.817a16.634,16.634,0,0,1,.519-4.064c.368-1.027-.034-5.513-.317-8.112-.121-1.123-.219-1.892-.219-1.892S557.4,762.676,556.481,765.067Z" transform="translate(-435.521 -556.614)" fill="#fbbebe"/>
    <path id="Path_43" data-name="Path 43" d="M632.469,766.526l-.671,6.521a15.876,15.876,0,0,1,0,2.975c-.1.508-.2,1.592-.281,2.434-.051.637-.084,1.14-.084,1.14s-4.168,2.919-5.12.356a4.539,4.539,0,0,1-.236-.96c-.4-2.675.769-6.6.769-6.6V764l5.777.943Z" transform="translate(-490.234 -556.607)" fill="#fbbebe"/>
    <path id="Path_44" data-name="Path 44" d="M556.517,765.066a9.939,9.939,0,0,0-.424,1.684,8.317,8.317,0,0,1-5.895.222c-.121-1.123-.219-1.892-.219-1.892S557.435,762.674,556.517,765.066Z" transform="translate(-435.557 -556.612)" opacity="0.1"/>
    <path id="Path_45" data-name="Path 45" d="M634.837,764.926l-.163,1.58a6.88,6.88,0,0,1-5.614-.281V763.98Z" transform="translate(-492.439 -556.593)" opacity="0.1"/>
    <path id="Path_46" data-name="Path 46" d="M552.147,506.21s-.474,3.514-1.01,4.23-.3,1.726-.842,1.844-.716,2.74-.716,2.74l-.455,5.777s-.121,1.19-.775,1.488,0,1.906,0,1.906-.7,1.37-.281,2.145-.842,4.345-.842,4.345-.536,6.908,0,7.86a7.811,7.811,0,0,1,.842,3.037c0,.6.3,11.73.3,11.73s-.716,4.528-.954,5.361.657,2.678.062,3.632a7,7,0,0,0-.477,3.088s-.921,8.407-.385,11.495-.171,3.75-.171,3.75a8.334,8.334,0,0,0,8.387-.357s0-6.074.716-7.147.6-4.107.6-4.107.177-2.681.713-3.217.41-2.911.41-2.911.474-1.549,1.01-2.807a24.28,24.28,0,0,0,.842-4.772,6.007,6.007,0,0,1,.842-1.729c.6-.842,0-2.678,0-2.678a3.253,3.253,0,0,1-.236-2.383c.418-1.19,2.737-10.838,2.737-10.838l.9-3.453,1.308,4.407a30.076,30.076,0,0,0,0,4.048,12.84,12.84,0,0,0,1.429,2.807v9.35s.121,6.313.6,7.323a23.451,23.451,0,0,1,.713,4.772s1.608,11.017.6,12.631c0,0,4.587,3.273,8.219.6,0,0-.775-2.2,0-2.978s1.308-10.481,1.308-10.481.477-3.871.418-4.772-.654-5.12-.3-6.012.842-17.684.842-17.684l.6-7.441v-6.091a35.78,35.78,0,0,0-1.347-9.751c-1.008-3.551-2.4-7.624-3.576-7.879C574.139,507.083,555.661,509.129,552.147,506.21Z" transform="translate(-433.01 -371.178)" fill="#3f3d56"/>
    <path id="Path_47" data-name="Path 47" d="M555.457,815.96c-.048.438-.076.772-.076.772l-5.451-.357s0-.323.017-.817c2.557-2.268,5.106.4,5.106.4Z" transform="translate(-435.521 -593.037)" opacity="0.1"/>
    <path id="Path_48" data-name="Path 48" d="M543.5,816.619v3.307a26.537,26.537,0,0,1-1.518,2.709,5.924,5.924,0,0,0-.407,2.122c-.053.674-.07,1.241-.07,1.241s.716,2.86-4.881,2.74-3.335-4.258-3.335-4.258l.031-.053c.281-.522,2.546-4.575,2.807-4.8a5.478,5.478,0,0,0,.477-1.715l1.041-1.684c2.563-2.29,5.123.387,5.123.387Z" transform="translate(-423.227 -593.507)" fill="#3f3d56"/>
    <path id="Path_49" data-name="Path 49" d="M541.507,849.371s.716,2.86-4.881,2.74-3.335-4.247-3.335-4.247l.031-.053c.154.842.814,1.715,2.916,1.6a12.907,12.907,0,0,0,5.333-1.272C541.524,848.8,541.507,849.371,541.507,849.371Z" transform="translate(-423.227 -616.892)" opacity="0.1"/>
    <path id="Path_50" data-name="Path 50" d="M631.76,814.127c-.051.637-.084,1.14-.084,1.14s-4.168,2.919-5.12.356a4.533,4.533,0,0,1-.236-.96,2.3,2.3,0,0,0,.236-.2c.682-1.01,4.314-1.041,4.491-.561C631.156,814.174,631.5,814.174,631.76,814.127Z" transform="translate(-490.468 -592.284)" opacity="0.1"/>
    <path id="Path_51" data-name="Path 51" d="M628.031,829.028c-3.93.247-4.606-2.17-4.491-3.93a5.332,5.332,0,0,1,.281-1.418,13.784,13.784,0,0,0,.427-3.787l-.188-4.466c.149.059.508-.3.508-.3.682-1.01,4.314-1.041,4.491-.561s1.013.154,1.013.154a12.152,12.152,0,0,0,1.069,5.476,13.438,13.438,0,0,1,1.291,4.856c.017.225.02.354.02.354S633.238,828.7,628.031,829.028Z" transform="translate(-488.46 -592.765)" fill="#3f3d56"/>
    <path id="Path_52" data-name="Path 52" d="M628.031,856.65c-3.93.247-4.606-2.17-4.491-3.93,0,0,1.019,1.732,4.648,1.316a10.188,10.188,0,0,0,4.238-1.367c.017.225.02.354.02.354S633.238,856.322,628.031,856.65Z" transform="translate(-488.46 -620.388)" opacity="0.1"/>
    <g id="Group_4" data-name="Group 4" transform="translate(139.498 135.916)" opacity="0.1">
      <path id="Path_53" data-name="Path 53" d="M643.433,513.73c-.806-2.3-1.684-4.21-2.481-4.37l-.71.073c.741.4,1.555,2.173,2.3,4.3a44.528,44.528,0,0,1,2.442,14.664v4.688l-.6,7.444s-.477,16.791-.842,17.684.239,5.12.3,6.015-.418,4.772-.418,4.772-.536,9.706-1.308,10.478,0,2.978,0,2.978a5.334,5.334,0,0,1-2.807,1.036,5.462,5.462,0,0,0,3.708-1.036s-.775-2.2,0-2.978S644.326,569,644.326,569s.477-3.871.418-4.772-.654-5.123-.3-6.015.842-17.684.842-17.684l.6-7.444v-4.688A44.53,44.53,0,0,0,643.433,513.73Z" transform="translate(-639.31 -509.36)"/>
    </g>
    <g id="Group_5" data-name="Group 5" transform="translate(113.449 135.032)" opacity="0.1">
      <path id="Path_54" data-name="Path 54" d="M547.582,580.645s.707-.657.171-3.753.357-11.492.357-11.492a6.98,6.98,0,0,1,.477-3.088c.6-.943-.3-2.807-.062-3.632s.954-5.361.954-5.361-.306-11.141-.306-11.739a7.791,7.791,0,0,0-.842-3.034c-.536-.954,0-7.86,0-7.86s1.249-3.573.842-4.345.281-2.145.281-2.145-.654-1.608,0-1.906.775-1.488.775-1.488l.474-5.777s.18-2.619.716-2.74.3-1.123.842-1.844a13.411,13.411,0,0,0,.929-3.672,3.713,3.713,0,0,1-.988-.561s-.477,3.512-1.013,4.227-.3,1.726-.842,1.844-.713,2.74-.713,2.74l-.46,5.779s-.121,1.19-.775,1.488,0,1.906,0,1.906-.7,1.37-.281,2.145-.842,4.345-.842,4.345-.536,6.908,0,7.86a7.788,7.788,0,0,1,.842,3.034c0,.6.3,11.73.3,11.73s-.716,4.528-.952,5.361.654,2.678.059,3.632a7,7,0,0,0-.477,3.088s-.9,8.41-.365,11.5-.171,3.753-.171,3.753a8.2,8.2,0,0,0,4.418.94A8,8,0,0,1,547.582,580.645Z" transform="translate(-546.51 -506.21)"/>
    </g>
    <path id="Path_55" data-name="Path 55" d="M586.458,305.156a22.133,22.133,0,0,1,1.855,2.394,3.278,3.278,0,0,0,2.549,1.426,6.841,6.841,0,0,1,.893-.076,1.922,1.922,0,0,1,.963.421,6.158,6.158,0,0,1,2.077,3.93c.272,1.488.281,3.037.685,4.508a2.246,2.246,0,0,0,.758,1.316,3.266,3.266,0,0,0,1.94.25,3.426,3.426,0,0,1,2.448.808,1.944,1.944,0,0,1,.382,2.4,1.464,1.464,0,0,0-.314.545,1,1,0,0,0,.281.721l1.836,2.5a2.665,2.665,0,0,1,.71,1.684,1.319,1.319,0,0,1-2.324.755c.2.62-.413,1.263-1.058,1.347a3.4,3.4,0,0,1-1.861-.488l-.048,1.058c-.539.281-1.109-.281-1.538-.719s-1.314-.69-1.519-.118a.741.741,0,0,0,.174.7c.75.935,2.507.7,3.023,1.78a1.46,1.46,0,0,1-.9,1.867,2.452,2.452,0,0,1-2.2-.449c-.626-.449-1.238-1.232-2.055-1.227-1.019,0-1.628,1.179-2.58,1.547a2.633,2.633,0,0,1-2.619-.761c-.7-.657-1.185-1.507-1.83-2.22-1.662-1.833-4.18-2.56-6.526-3.343s-4.831-1.85-6.043-4.006a16.392,16.392,0,0,0-1.067-2.013c-.792-1.033-2.122-1.516-2.989-2.484a3.837,3.837,0,0,1-.587-4.1,13.743,13.743,0,0,1,1.71-2.307,7.759,7.759,0,0,0,1.524-4.553,5.769,5.769,0,0,1,.132-1.841,2.867,2.867,0,0,1,2.08-1.712,8.549,8.549,0,0,1,2.807-.065,25.727,25.727,0,0,0,3.071.281c.679-.031,1.2-.561,1.858-.741A4.539,4.539,0,0,1,586.458,305.156Z" transform="translate(-448.976 -225.727)" fill="#3f3d56"/>
    <g id="Group_6" data-name="Group 6" transform="translate(119.782 84.945)" opacity="0.1">
      <path id="Path_56" data-name="Path 56" d="M658.722,329.645c.281,1.5.281,3.037.688,4.505a2.842,2.842,0,0,0,.446,1.013c-.034-.1-.065-.2-.09-.3-.39-1.471-.413-3.012-.685-4.508a8.017,8.017,0,0,0-.9-2.588A8.9,8.9,0,0,1,658.722,329.645Z" transform="translate(-633.167 -327.77)"/>
      <path id="Path_57" data-name="Path 57" d="M681.436,363.837a1.443,1.443,0,0,0-.317.561,1,1,0,0,0,.281.719c.025.034.048.067.073.1a.441.441,0,0,1,0-.1,1.47,1.47,0,0,1,.317-.545,1.9,1.9,0,0,0-.171-2.167A1.732,1.732,0,0,1,681.436,363.837Z" transform="translate(-649.667 -352.679)"/>
      <path id="Path_58" data-name="Path 58" d="M609.55,380.652a1.535,1.535,0,0,1-.994,1.516,2.452,2.452,0,0,1-2.2-.452c-.626-.452-1.238-1.229-2.052-1.224-1.022,0-1.628,1.179-2.583,1.544a2.627,2.627,0,0,1-2.619-.761c-.7-.657-1.185-1.507-1.827-2.218-1.662-1.833-4.18-2.563-6.529-3.346s-4.817-1.844-6.032-3.992c.109.239.222.474.348.7,1.213,2.156,3.694,3.222,6.041,4.006s4.867,1.51,6.529,3.343c.646.713,1.123,1.564,1.827,2.22a2.636,2.636,0,0,0,2.619.761c.954-.368,1.561-1.538,2.582-1.547.814,0,1.4.741,2.055,1.227a2.357,2.357,0,0,0,2.192.449,1.461,1.461,0,0,0,.9-1.867A1.315,1.315,0,0,0,609.55,380.652Z" transform="translate(-580.327 -359.383)"/>
      <path id="Path_59" data-name="Path 59" d="M669.65,384.87a1.535,1.535,0,0,1,.079.575,1.322,1.322,0,0,1-2.327.758c.2.618-.413,1.26-1.058,1.347a3.374,3.374,0,0,1-1.861-.488c-.017.351-.031.7-.048,1.055-.539.281-1.123-.281-1.535-.716s-1.314-.693-1.521-.118a.744.744,0,0,0,.174.693,1.428,1.428,0,0,0,.154.166.515.515,0,0,1,.028-.146c.208-.561,1.092-.314,1.521.118s1,1,1.538.719c0-.354.031-.7.045-1.058a3.532,3.532,0,0,0,1.864.488c.646-.073,1.258-.727,1.055-1.347a1.322,1.322,0,0,0,2.327-.755,2.113,2.113,0,0,0-.435-1.291Z" transform="translate(-635.45 -368.842)"/>
      <path id="Path_60" data-name="Path 60" d="M572.385,357.026c-.789-1.033-2.122-1.513-2.987-2.484a3.242,3.242,0,0,1-.328-.432,3.565,3.565,0,0,0,.685,1.148c.865.968,2.2,1.451,2.987,2.484a3.8,3.8,0,0,1,.3.46A6.336,6.336,0,0,0,572.385,357.026Z" transform="translate(-569.07 -346.716)"/>
    </g>
    <path id="Path_61" data-name="Path 61" d="M592.333,362.39s.654,7.264-2.324,9.465,6.372,8.219,6.372,8.219l7.088-1.549s-3.455-3.214-3.455-4.584.6-9.052,1.549-9.945S592.333,362.39,592.333,362.39Z" transform="translate(-463.928 -267.728)" fill="#fbbebe"/>
    <path id="Path_62" data-name="Path 62" d="M547.7,289.115l-1.62,3.54s-2.414,1.432-2.591,1.564-2.1,2.324-2.1,2.324l-4.735,3.037s-.115-.216-.281-.522a14.134,14.134,0,0,0-1.1-1.757c-.4-.446,0-5.179,0-5.179a3.713,3.713,0,0,0,.6-2.992c-.334-1.92-.379-9.468-.379-9.468s-.357-6.344.135-7.683-1.123-5.583-1.123-5.583-4.553-4.525-4.241-5.46,3.8,0,3.8,0a7.858,7.858,0,0,0,2.1.761c.432.025,2.742.036,4.514.039h2.1s1.474,5.134,1.3,5.67c-.036.1-.073.208-.107.309-.143.413-.253.78-.073,1.03a35.137,35.137,0,0,1,.716,4.109l.491,4.109a35.492,35.492,0,0,1,.713,3.663c-.045.449-1.162,1.384-.671,2.232a12.386,12.386,0,0,1,.674,3.439,9.772,9.772,0,0,0,1.631,2.625A1.372,1.372,0,0,0,547.7,289.115Z" transform="translate(-421.369 -194.452)" fill="#6c63ff"/>
    <circle id="Ellipse_5" data-name="Ellipse 5" cx="8.575" cy="8.575" r="8.575" transform="translate(125.292 82.343)" opacity="0.1"/>
    <circle id="Ellipse_6" data-name="Ellipse 6" cx="8.575" cy="8.575" r="8.575" transform="translate(125.292 81.986)" fill="#fbbebe"/>
    <path id="Path_63" data-name="Path 63" d="M583.943,408.938c-.775.842-.951,8.982-.494,9.707s-2.3,2.145-3.913,2.083-6.01,1.311-6.01,1.311-8.817-2.383-10.666-1.19-4.466-2.145-3.691-3.335-.842-2.857-1.072-3.511a5.254,5.254,0,0,1-.1-.842h0c-.216-3-.441-12.6-.441-12.6V389.528l8.1-5.718a38.866,38.866,0,0,1,3.759,2.175,18.408,18.408,0,0,1,2.431,1.872c2.206,2.086,7.683,4.289,7.683,4.289s6.015,7.206,6.787,7.921S584.714,408.1,583.943,408.938Z" transform="translate(-441.009 -283.135)" fill="#fff"/>
    <path id="Path_64" data-name="Path 64" d="M557.57,419.122V409.64s.247,17.271.441,22.085C557.795,428.727,557.57,419.122,557.57,419.122Z" transform="translate(-441.016 -301.715)" opacity="0.1"/>
    <path id="Path_65" data-name="Path 65" d="M559.26,490.86a.944.944,0,0,1,.062.5C559.3,491.444,559.28,491.259,559.26,490.86Z" transform="translate(-442.232 -360.137)" opacity="0.1"/>
    <path id="Path_66" data-name="Path 66" d="M569.48,389.051a7.268,7.268,0,0,0-1.294,1.83c-.446.982-10.616.18-10.616.18v-1.533l8.1-5.718a38.866,38.866,0,0,1,3.758,2.175C569.48,387.664,569.48,389.051,569.48,389.051Z" transform="translate(-441.016 -283.135)" opacity="0.1"/>
    <path id="Path_67" data-name="Path 67" d="M559.26,488.31a.946.946,0,0,1,.062.5C559.3,488.9,559.28,488.711,559.26,488.31Z" transform="translate(-442.232 -358.302)" opacity="0.1"/>
    <path id="Path_68" data-name="Path 68" d="M563.386,361.9l-1.62,3.54s-2.414,1.432-2.591,1.563-2.1,2.324-2.1,2.324l-4.735,3.037s-.115-.216-.281-.522a32.978,32.978,0,0,1,3.368-3.812c1.519-1.159-.045-1.294,0-1.519s3.352-1.429,4.244-2.276a37.487,37.487,0,0,1,3.464-2.526A1.373,1.373,0,0,0,563.386,361.9Z" transform="translate(-437.053 -267.239)" opacity="0.1"/>
    <path id="Path_69" data-name="Path 69" d="M519.369,362.39a40.447,40.447,0,0,0-3.719,2.678c-.893.848-4.21,2.055-4.244,2.279s1.519.356,0,1.519-5.224,6.608-6.566,7.017-10.492,4.21-10.492,4.21-2.992,2.807-3.439,2.807,2.723,3.037,2.723,3.037,2.857,2.279,3.172,2.636,8.135,4.584,8.135,4.584,1.342.4,1.474.8,1.92,1.519,1.92,1.519,2,2.293,1.8,3.11-.536-23.3-.536-23.3,10.17.8,10.616-.18a7.273,7.273,0,0,1,1.294-1.83s-.028-8.261-.6-8.873S519.381,363.148,519.369,362.39Z" transform="translate(-393.036 -267.728)" fill="#6c63ff"/>
    <path id="Path_70" data-name="Path 70" d="M508.2,415.067s2.678,2.9,3.93,3.394a3.383,3.383,0,0,1,1.74,1.788,10.221,10.221,0,0,0,2.279.982,5.644,5.644,0,0,1,2.01,1.339s2.992.842,2.992,1.474,1.207,1.476,1.207,1.476l-.3-17.151s-4.971.623-6.4,2.723S508.2,415.067,508.2,415.067Z" transform="translate(-405.504 -300.801)" opacity="0.1"/>
    <path id="Path_71" data-name="Path 71" d="M529,416.939c.224-.135,6.321-7.989,6.321-7.989l1.123-.23a44.888,44.888,0,0,0-2.849,4.69C533.64,413.767,529,416.939,529,416.939Z" transform="translate(-420.466 -301.053)" opacity="0.1"/>
    <path id="Path_72" data-name="Path 72" d="M538.11,423.726s1.608-3.708,2.055-4.334,2.849-4.822,2.849-4.822a2.821,2.821,0,0,1,0,1.072C542.888,416.044,538.11,423.726,538.11,423.726Z" transform="translate(-427.018 -305.261)" opacity="0.1"/>
    <path id="Path_73" data-name="Path 73" d="M568.049,348.7s-3.573,6.521-3.259,6.835S568.049,348.7,568.049,348.7Z" transform="translate(-446.195 -257.88)" opacity="0.1"/>
    <path id="Path_74" data-name="Path 74" d="M574,357.93s-2.947,4.309-2.681,4.253A43.064,43.064,0,0,0,574,357.93Z" transform="translate(-450.892 -264.52)" opacity="0.1"/>
    <path id="Path_75" data-name="Path 75" d="M541.813,223.95l-5.628.4s0-.182-.02-.5c-.079-1.858-.362-8.337-.514-9.061-.18-.842-.359-2.366-.359-2.366s-3.037-.446-2.992-.938-3.885-5.718-.893-5.614c2.335.07,6.327,2.829,7.969,4.039a1.5,1.5,0,0,1,.6,1.387,6.022,6.022,0,0,0-.05,1.067,14.982,14.982,0,0,1-.059,2.215,3.4,3.4,0,0,0,.253,1.878,35.253,35.253,0,0,1,1.4,5.8C541.7,223.237,541.813,223.95,541.813,223.95Z" transform="translate(-421.388 -155.146)" fill="#fbbebe"/>
    <path id="Path_76" data-name="Path 76" d="M555.729,271.156l-.107.306c-1.221-1.21-8.87-1.982-8.87-1.982-.671-.78-.07-1.123.646-2.077.418-.561,2.925-1.359,4.937-1.923h2.1S555.906,270.62,555.729,271.156Z" transform="translate(-433.025 -198.02)" opacity="0.1"/>
    <path id="Path_77" data-name="Path 77" d="M556.888,265.911l-5.628.4s0-.182-.02-.5a24.5,24.5,0,0,1,4.533-1.606h.814C556.77,265.2,556.888,265.911,556.888,265.911Z" transform="translate(-436.463 -197.106)" opacity="0.1"/>
    <path id="Path_78" data-name="Path 78" d="M555.729,270.516c-.036.1-.073.208-.107.309-1.221-1.213-8.87-1.984-8.87-1.984-.671-.78-.07-1.123.646-2.074.418-.561,2.925-1.361,4.937-1.926h2.1S555.906,269.98,555.729,270.516Z" transform="translate(-433.025 -197.56)" fill="#6c63ff"/>
    <path id="Path_79" data-name="Path 79" d="M596.107,442.57s-.626,12.014,0,12.595S596.107,442.57,596.107,442.57Z" transform="translate(-468.536 -325.401)" opacity="0.1"/>
    <path id="Path_80" data-name="Path 80" d="M612.314,460.55s-.224,13.221,0,13.353S612.314,460.55,612.314,460.55Z" transform="translate(-480.322 -338.335)" opacity="0.1"/>
    <path id="Path_81" data-name="Path 81" d="M631,466.12s.842,9.111,1.608,9.468S631,466.12,631,466.12Z" transform="translate(-493.835 -342.341)" opacity="0.1"/>
    <path id="Path_82" data-name="Path 82" d="M643.034,435.786a1.86,1.86,0,0,1-.716-.281c-.758-.491-1.608-5.763-2.723-6.476s-5.137-7.728-5.137-7.728a36.853,36.853,0,0,0-2.189-3.528c-.626-.721-.312-3.93-.312-3.93a17.5,17.5,0,0,1-2.369-3.528,3.2,3.2,0,0,1-.309-1.148s.239-.7,1.19,0,3.273,3.694,3.9,3.916a5.6,5.6,0,0,1,2.324,1.743,4.835,4.835,0,0,0,1.384,1.252,17.385,17.385,0,0,1,1.027,3.394c-.045.671.357,5.224.842,5.628s1.294,4.062,1.294,4.062S642.723,434.318,643.034,435.786Z" transform="translate(-492.597 -301.15)" opacity="0.1"/>
    <path id="Path_83" data-name="Path 83" d="M666.05,444.785V444.6a1.751,1.751,0,0,1,.048.4A.926.926,0,0,1,666.05,444.785Z" transform="translate(-519.046 -326.862)" opacity="0.1"/>
    <path id="Path_84" data-name="Path 84" d="M668.572,464.691c-.183.317-.354.606-.5.842-.738-.761-1.569-5.723-2.65-6.414a5.049,5.049,0,0,1-.982-1.1v-5.895A7.584,7.584,0,0,0,665,450.94c.132,1.594.435,3.958.783,4.244.491.4,1.294,4.065,1.294,4.065S668.038,462.628,668.572,464.691Z" transform="translate(-517.888 -331.422)" opacity="0.1"/>
    <path id="Path_85" data-name="Path 85" d="M643.674,435.149a1.759,1.759,0,0,1-.716-.281c-.761-.491-1.608-5.76-2.726-6.476s-5.134-7.725-5.134-7.725a36.879,36.879,0,0,0-2.189-3.528c-.626-.721-.312-3.93-.312-3.93a17.594,17.594,0,0,1-2.369-3.528,3.227,3.227,0,0,1-.309-1.151s.236-.7,1.19,0,3.273,3.694,3.9,3.916a5.591,5.591,0,0,1,2.321,1.746,4.731,4.731,0,0,0,1.384,1.249,17.454,17.454,0,0,1,1.027,3.394c-.045.668.359,5.227.842,5.628s1.294,4.064,1.294,4.064S643.363,433.681,643.674,435.149Z" transform="translate(-493.058 -300.693)" fill="#6c63ff"/>
    <circle id="Ellipse_7" data-name="Ellipse 7" cx="0.603" cy="0.603" r="0.603" transform="translate(140.902 116.568)" fill="#3f3d56"/>
    <circle id="Ellipse_8" data-name="Ellipse 8" cx="0.603" cy="0.603" r="0.603" transform="translate(144.865 121.994)" fill="#3f3d56"/>
    <path id="Path_86" data-name="Path 86" d="M670.579,454.1s-2.905-1.328-2.459-.612S670.579,454.1,670.579,454.1Z" transform="translate(-520.502 -333.102)" opacity="0.1"/>
    <path id="Path_87" data-name="Path 87" d="M670.821,461.867s-2.95-.8-2.324-.334A4.744,4.744,0,0,0,670.821,461.867Z" transform="translate(-520.743 -338.936)" opacity="0.1"/>
    <path id="Path_88" data-name="Path 88" d="M671.17,468s-2.01-1.454-1.519-.918A4.727,4.727,0,0,0,671.17,468Z" transform="translate(-521.581 -342.95)" opacity="0.1"/>
    <path id="Path_89" data-name="Path 89" d="M679.31,476.14s-2.049,4.031-1.069,4.295S679.31,476.14,679.31,476.14Z" transform="translate(-527.624 -349.548)" opacity="0.1"/>
    <path id="Path_90" data-name="Path 90" d="M569.6,711.77s-4.7,4.466-3.335,4.407S569.6,711.77,569.6,711.77Z" transform="translate(-447.094 -519.038)" opacity="0.1"/>
    <path id="Path_91" data-name="Path 91" d="M555.24,731.908c.239,0,5-.477,3.75-.716S555.24,731.908,555.24,731.908Z" transform="translate(-439.34 -532.981)" opacity="0.1"/>
    <path id="Path_92" data-name="Path 92" d="M637.76,709.23s5.052.177,4.943.713S637.76,709.23,637.76,709.23Z" transform="translate(-498.697 -517.211)" opacity="0.1"/>
    <path id="Path_93" data-name="Path 93" d="M634.79,716.44s2.916,2.2,3.573,1.488S634.79,716.44,634.79,716.44Z" transform="translate(-496.561 -522.397)" opacity="0.1"/>
    <path id="Path_94" data-name="Path 94" d="M570.936,597.262a1.484,1.484,0,0,1-.185.452.456.456,0,0,1-.129.135,8.027,8.027,0,0,1-2.383,1.123c-.109-.028-.536-.157-1-.281-.547-.16-1.154-.331-1.381-.362s-.359-.393-.393-.747,0-.629.149-.682a.354.354,0,0,0,.126-.185,2.22,2.22,0,0,0,.079-.25l.022-.084c.079-.326.143-.738.188-1.078.025-.182.042-.345.056-.455v-.129h0V594.7l.393-.02h.373a23.142,23.142,0,0,1,3.4.034.958.958,0,0,1,.62.713,3.281,3.281,0,0,1,.14.806,3.6,3.6,0,0,1-.076,1.033Z" transform="translate(-446.682 -434.78)" fill="#fbbebe"/>
    <path id="Path_95" data-name="Path 95" d="M636.429,602.435a.432.432,0,0,0,0,.059c0,.609-.042,1.069-.042,1.145a29.833,29.833,0,0,1-7.739,1.785c-1.016-.079-.261-.775.306-1.493a2.354,2.354,0,0,0,.449-.761.56.56,0,0,0,0-.306c-.031-.112-.059-.213-.079-.306h0c-.146-.643-.073-.842.079-1a1.188,1.188,0,0,0,.2-.385,1.54,1.54,0,0,0,.087-.4,1.208,1.208,0,0,0-.227-.862c-.477-.634,1.788-.974,1.788-.974h4.3c.421,0,.646.6.758,1.364a.08.08,0,0,0,0,.025c.031.224.056.463.07.707s.025.46.028.685S636.429,602.207,636.429,602.435Z" transform="translate(-491.783 -437.879)" fill="#fbbebe"/>
    <path id="Path_96" data-name="Path 96" d="M579.587,670.33s-4.772,1.123-4.286.842c.182-.115.224-.5.208-.94a6.3,6.3,0,0,0-.056-.648c-.062-.5-.152-.912-.152-.912a11.869,11.869,0,0,1,3.394-.3,1.064,1.064,0,0,1,.671.719,1.026,1.026,0,0,1,.036.1A4.088,4.088,0,0,1,579.587,670.33Z" transform="translate(-453.745 -487.779)" fill="#fbbebe"/>
    <path id="Path_97" data-name="Path 97" d="M592.894,320.959a20.623,20.623,0,0,0,1.858-.907,2.554,2.554,0,0,1,2-.2,3.187,3.187,0,0,1,.876.615c.562.5,1.123.994,1.651,1.524A9.7,9.7,0,0,0,601,323.53c1.474.9,3.346.7,5.052.429a3.111,3.111,0,0,0,1-.281,2.07,2.07,0,0,0,.862-2.232,5,5,0,0,0-1.283-2.187,17.965,17.965,0,0,0-5.858-4.334c-2.363-1.086-5.176-1.628-7.534-.536a8.172,8.172,0,0,0-1.965,1.342c-.82.73-2.939,2.585-2.47,3.84C589.315,320.984,591.673,321.369,592.894,320.959Z" transform="translate(-463.431 -232.772)" opacity="0.1"/>
    <path id="Path_98" data-name="Path 98" d="M592.894,320.324a19.906,19.906,0,0,0,1.858-.907,2.566,2.566,0,0,1,2-.2,3.315,3.315,0,0,1,.876.615c.561.5,1.123.994,1.651,1.524A9.587,9.587,0,0,0,601,322.9c1.474.9,3.346.7,5.052.429a3.043,3.043,0,0,0,1-.281,2.068,2.068,0,0,0,.862-2.232,5,5,0,0,0-1.283-2.187,17.922,17.922,0,0,0-5.858-4.331c-2.363-1.086-5.176-1.628-7.534-.539a8.257,8.257,0,0,0-1.965,1.342c-.82.73-2.939,2.588-2.47,3.843C589.315,320.352,591.673,320.737,592.894,320.324Z" transform="translate(-463.431 -232.317)" fill="#3f3d56"/>
    <path id="Path_99" data-name="Path 99" d="M607.025,335.966a3.01,3.01,0,0,1-.994.281c-1.707.281-3.576.469-5.053-.43a9.7,9.7,0,0,1-1.729-1.549c-.528-.533-1.092-1.027-1.651-1.524a3.262,3.262,0,0,0-.876-.618,2.56,2.56,0,0,0-2,.2,19.88,19.88,0,0,1-1.855.907c-1.221.41-3.579.025-4.107-1.381a1.051,1.051,0,0,1-.053-.211,1.166,1.166,0,0,0,.053.561c.528,1.4,2.886,1.791,4.107,1.381a20.237,20.237,0,0,0,1.855-.907,2.558,2.558,0,0,1,2-.2,3.19,3.19,0,0,1,.876.615c.561.5,1.123.994,1.651,1.524a9.706,9.706,0,0,0,1.721,1.535c1.474.9,3.343.7,5.053.429a3.088,3.088,0,0,0,.994-.281,2,2,0,0,0,.907-1.926A1.886,1.886,0,0,1,607.025,335.966Z" transform="translate(-463.403 -245.609)" opacity="0.1"/>
    <path id="Path_100" data-name="Path 100" d="M567.062,595.45a11.593,11.593,0,0,1-.312,1.6,13.321,13.321,0,0,0,.281-1.617Z" transform="translate(-447.619 -435.354)" opacity="0.1"/>
    <path id="Path_101" data-name="Path 101" d="M570.624,597.86a8.024,8.024,0,0,1-2.383,1.123c-.239-.067-1.965-.6-2.386-.654s-.531-1.311-.244-1.429a.354.354,0,0,0,.126-.185,2.432,2.432,0,0,1-.1.25,1.242,1.242,0,0,0,.281,1.311l2.476.64,2.333-1.274c.561-.772-.067-2.552-.387-2.841s-4.146,0-4.146,0l-.084-.081h0V594.7l.393-.02h.373a23.141,23.141,0,0,1,3.4.034C571.219,594.881,571.219,597.444,570.624,597.86Z" transform="translate(-446.685 -434.78)" opacity="0.1"/>
    <path id="Path_102" data-name="Path 102" d="M635.56,598.92h-4.3s-2.265.34-1.788.974a1.439,1.439,0,0,1-.064,1.645c-.171.18-.244.418,0,1.311s-2.313,2.442-.766,2.56a29.952,29.952,0,0,0,7.739-1.785C636.377,603.389,636.711,598.92,635.56,598.92Zm.581,4.62a28.186,28.186,0,0,1-7.3,1.684c-1.462-.109.952-1.569.721-2.411s-.163-1.067,0-1.235a1.358,1.358,0,0,0,.062-1.552c-.449-.6,1.684-.918,1.684-.918h4.056C636.456,599.105,636.142,603.316,636.142,603.54Z" transform="translate(-491.776 -437.865)" opacity="0.1"/>
    <path id="Path_103" data-name="Path 103" d="M578.7,668.343a11.871,11.871,0,0,0-3.394.3s.477,2.2,0,2.5,4.289-.842,4.289-.842S579.593,668.582,578.7,668.343Zm-3.321,2.751c.46-.281,0-2.417,0-2.417a11.337,11.337,0,0,1,3.279-.281c.862.236.862,1.9.862,1.9s-4.6,1.086-4.14.8Z" transform="translate(-453.748 -487.757)" opacity="0.1"/>
    <path id="Path_104" data-name="Path 104" d="M639.463,607.089l-7.093.842h0l7.065-1.521C639.449,606.632,639.46,606.856,639.463,607.089Z" transform="translate(-494.82 -443.252)" opacity="0.1"/>
    <path id="Path_105" data-name="Path 105" d="M489.81,581.556l7.368-1.586.157.69Z" transform="translate(-352.325 -417.045)" fill="#3f3d56"/>
    <path id="Path_106" data-name="Path 106" d="M638.481,611.39a.414.414,0,0,0,0,.059L631,612.886a2.355,2.355,0,0,0,.449-.761Z" transform="translate(-493.835 -446.834)" opacity="0.1"/>
    <path id="Path_107" data-name="Path 107" d="M485.81,585.823l8.982-.943-8.744,1.681Z" transform="translate(-349.447 -420.577)" fill="#3f3d56"/>
    <path id="Path_108" data-name="Path 108" d="M640.089,603.78l-6.622.472a1.54,1.54,0,0,1-.087.4l6.711-.842Z" transform="translate(-495.547 -441.36)" opacity="0.1"/>
    <path id="Path_109" data-name="Path 109" d="M489.522,577.956l7.525-.536-7.638.96Z" transform="translate(-352.037 -415.211)" fill="#3f3d56"/>
    <path id="Path_110" data-name="Path 110" d="M572.02,597.959l-5.19.168c.079-.326.143-.738.188-1.078l4.862.1A3.284,3.284,0,0,1,572.02,597.959Z" transform="translate(-447.677 -436.519)" opacity="0.1"/>
    <path id="Path_111" data-name="Path 111" d="M423.12,570.76l7.079.149-.865.755-6.215.2Z" transform="translate(-304.354 -410.42)" fill="#3f3d56"/>
    <path id="Path_112" data-name="Path 112" d="M570.966,604a1.484,1.484,0,0,1-.185.452l-3.517.974c-.547-.16-1.154-.331-1.381-.362s-.359-.393-.393-.747Z" transform="translate(-446.713 -441.519)" opacity="0.1"/>
    <path id="Path_113" data-name="Path 113" d="M419.81,577.9l8.247-.48-7.562,2.094Z" transform="translate(-301.973 -415.211)" fill="#3f3d56"/>
    <path id="Path_114" data-name="Path 114" d="M579.879,671.158l-3.893,1.041a6.269,6.269,0,0,0-.056-.648c1.086-.146,2.9-.368,3.913-.491a1.032,1.032,0,0,1,.036.1Z" transform="translate(-454.222 -489.755)" opacity="0.1"/>
    <path id="Path_115" data-name="Path 115" d="M572.74,670.8c.149-.059,5.569-.713,5.569-.713l-5.569,1.488Z" transform="translate(-451.928 -489.057)" fill="#3f3d56"/>
    <circle id="Ellipse_9" data-name="Ellipse 9" cx="6.071" cy="6.071" r="6.071" transform="translate(202.778 20.811)" fill="#6c63ff"/>
    <circle id="Ellipse_10" data-name="Ellipse 10" cx="4.775" cy="4.775" r="4.775" transform="translate(231.025 36.982)" fill="#6c63ff"/>
    <circle id="Ellipse_11" data-name="Ellipse 11" cx="6.071" cy="6.071" r="6.071" transform="translate(202.778 20.811)" fill="#0c1d8a" opacity="0.5"/>
    <circle id="Ellipse_12" data-name="Ellipse 12" cx="4.775" cy="4.775" r="4.775" transform="translate(231.025 36.982)" fill="#0c1d8a" opacity="0.5"/>
    <circle id="Ellipse_13" data-name="Ellipse 13" cx="15.323" cy="15.323" r="15.323" transform="translate(21.614 26.434)" fill="#6c63ff"/>
    <circle id="Ellipse_14" data-name="Ellipse 14" cx="15.323" cy="15.323" r="15.323" transform="translate(21.614 26.434)" fill="#0c1d8a" opacity="0.5"/>
    <circle id="Ellipse_15" data-name="Ellipse 15" cx="1.684" cy="1.684" r="1.684" transform="translate(232.706 18.751)" fill="#6c63ff"/>
    <circle id="Ellipse_16" data-name="Ellipse 16" cx="1.684" cy="1.684" r="1.684" transform="translate(232.706 18.751)" fill="#0c1d8a" opacity="0.5"/>
    <path id="Path_116" data-name="Path 116" d="M448.7,788s1.746,2.282-.806,5.729-4.654,6.355-3.8,8.505c0,0,3.848-6.4,6.981-6.49S452.136,791.851,448.7,788Z" transform="translate(-359.25 -573.871)" fill="#048b4c"/>
    <path id="Path_117" data-name="Path 117" d="M448.952,788a2.809,2.809,0,0,1,.357.716c3.057,3.593,4.685,6.944,1.749,7.017-2.737.076-6.021,4.971-6.807,6.206a2.583,2.583,0,0,0,.093.281s3.848-6.4,6.981-6.49S452.39,791.851,448.952,788Z" transform="translate(-359.504 -573.871)" opacity="0.1"/>
    <path id="Path_118" data-name="Path 118" d="M471.5,797.058c0,.8-.09,1.454-.2,1.454s-.2-.651-.2-1.454.112-.427.222-.427S471.5,796.253,471.5,797.058Z" transform="translate(-378.818 -580.015)" fill="#ffd037"/>
    <path id="Path_119" data-name="Path 119" d="M472.974,800.38c-.7.384-1.322.617-1.373.519s.474-.488,1.179-.873.427-.1.48,0S473.676,800,472.974,800.38Z" transform="translate(-379.176 -582.38)" fill="#ffd037"/>
    <path id="Path_120" data-name="Path 120" d="M418.093,788s-1.746,2.282.806,5.729,4.654,6.355,3.8,8.505c0,0-3.848-6.4-6.981-6.49S414.646,791.851,418.093,788Z" transform="translate(-337.872 -573.871)" fill="#048b4c"/>
    <path id="Path_121" data-name="Path 121" d="M418.093,788a2.81,2.81,0,0,0-.356.716c-3.057,3.593-4.685,6.944-1.749,7.017,2.737.076,6.021,4.971,6.807,6.206a2.563,2.563,0,0,1-.093.281s-3.848-6.4-6.981-6.49S414.646,791.851,418.093,788Z" transform="translate(-337.872 -573.871)" opacity="0.1"/>
    <path id="Path_122" data-name="Path 122" d="M416.57,797.058c0,.8.09,1.454.2,1.454s.2-.651.2-1.454-.112-.427-.222-.427S416.57,796.253,416.57,797.058Z" transform="translate(-339.594 -580.015)" fill="#ffd037"/>
    <path id="Path_123" data-name="Path 123" d="M411.5,800.38c.7.384,1.319.617,1.373.519s-.474-.488-1.179-.873-.427-.1-.48,0S410.8,800,411.5,800.38Z" transform="translate(-335.641 -582.38)" fill="#ffd037"/>
    <path id="Path_124" data-name="Path 124" d="M418.55,830.891s4.878-.149,6.349-1.2,7.509-2.3,7.874-.618,7.332,8.354,1.822,8.4-12.8-.859-14.268-1.752S418.55,830.891,418.55,830.891Z" transform="translate(-341.018 -602.825)" fill="#a8a8a8"/>
    <path id="Path_125" data-name="Path 125" d="M434.693,843.614c-5.507.045-12.8-.859-14.268-1.751-1.123-.682-1.563-3.127-1.712-4.253h-.163s.309,3.93,1.777,4.831,8.76,1.8,14.268,1.751c1.592,0,2.142-.578,2.111-1.417C436.484,843.294,435.877,843.614,434.693,843.614Z" transform="translate(-341.018 -609.555)" opacity="0.2"/>
    <path id="Path_126" data-name="Path 126" d="M811.393,763.557s-3.118-10.591.584-18.386a16.726,16.726,0,0,0,1.353-10.5,28.158,28.158,0,0,0-1.485-4.926" transform="translate(-622.709 -531.971)" fill="none" stroke="#535461" stroke-miterlimit="10" stroke-width="2"/>
    <path id="Path_127" data-name="Path 127" d="M812.312,706.38c0,1.3-2.349,5.053-2.349,5.053s-2.352-3.764-2.352-5.053a2.352,2.352,0,0,1,4.7,0Z" transform="translate(-620.871 -513.527)" fill="#6c63ff"/>
    <path id="Path_128" data-name="Path 128" d="M826.094,728.523c-.7,1.089-4.724,2.97-4.724,2.97s.073-4.435.778-5.524a2.351,2.351,0,0,1,3.947,2.554Z" transform="translate(-630.768 -528.479)" fill="#6c63ff"/>
    <path id="Path_129" data-name="Path 129" d="M823.3,770.185c-1.157.584-5.577.18-5.577.18s2.3-3.792,3.461-4.379A2.356,2.356,0,0,1,823.3,770.2Z" transform="translate(-628.143 -557.855)" fill="#6c63ff"/>
    <path id="Path_130" data-name="Path 130" d="M815.668,803.735c-1.044.772-5.468,1.123-5.468,1.123s1.628-4.126,2.672-4.9a2.353,2.353,0,1,1,2.807,3.778Z" transform="translate(-622.734 -582.139)" fill="#6c63ff"/>
    <path id="Path_131" data-name="Path 131" d="M801.967,738.956c.932.9,5.269,1.841,5.269,1.841s-1.064-4.309-1.993-5.213a2.349,2.349,0,1,0-3.276,3.368Z" transform="translate(-616.3 -535.69)" fill="#6c63ff"/>
    <path id="Path_132" data-name="Path 132" d="M791.843,776.671c1.159.584,5.577.18,5.577.18s-2.3-3.792-3.461-4.379a2.352,2.352,0,0,0-2.116,4.2Z" transform="translate(-608.643 -562.542)" fill="#6c63ff"/>
    <path id="Path_133" data-name="Path 133" d="M789.2,815.969c1.041.772,5.465,1.123,5.465,1.123s-1.628-4.129-2.672-4.9a2.355,2.355,0,1,0-2.807,3.781Z" transform="translate(-606.932 -590.937)" fill="#6c63ff"/>
    <path id="Path_134" data-name="Path 134" d="M812.312,706.38c0,1.3-2.349,5.053-2.349,5.053s-2.352-3.764-2.352-5.053a2.352,2.352,0,0,1,4.7,0Z" transform="translate(-620.871 -513.527)" fill="#089e1c"/>
    <path id="Path_135" data-name="Path 135" d="M826.094,728.523c-.7,1.089-4.724,2.97-4.724,2.97s.073-4.435.778-5.524a2.351,2.351,0,0,1,3.947,2.554Z" transform="translate(-630.768 -528.479)" fill="#089e1c"/>
    <path id="Path_136" data-name="Path 136" d="M823.3,770.185c-1.157.584-5.577.18-5.577.18s2.3-3.792,3.461-4.379A2.356,2.356,0,0,1,823.3,770.2Z" transform="translate(-628.143 -557.855)" fill="#089e1c"/>
    <path id="Path_137" data-name="Path 137" d="M815.668,803.735c-1.044.772-5.468,1.123-5.468,1.123s1.628-4.126,2.672-4.9a2.353,2.353,0,1,1,2.807,3.778Z" transform="translate(-622.734 -582.139)" fill="#089e1c"/>
    <path id="Path_138" data-name="Path 138" d="M801.967,738.956c.932.9,5.269,1.841,5.269,1.841s-1.064-4.309-1.993-5.213a2.349,2.349,0,1,0-3.276,3.368Z" transform="translate(-616.3 -535.69)" fill="#089e1c"/>
    <path id="Path_139" data-name="Path 139" d="M791.843,776.671c1.159.584,5.577.18,5.577.18s-2.3-3.792-3.461-4.379a2.352,2.352,0,0,0-2.116,4.2Z" transform="translate(-608.643 -562.542)" fill="#089e1c"/>
    <path id="Path_140" data-name="Path 140" d="M789.2,815.969c1.041.772,5.465,1.123,5.465,1.123s-1.628-4.129-2.672-4.9a2.355,2.355,0,1,0-2.807,3.781Z" transform="translate(-606.932 -590.937)" fill="#089e1c"/>
    <path id="Path_141" data-name="Path 141" d="M788.27,838.319s3.8-.755,4.811-1.76,5.572-2.765,6.08-1.507,6.835,5.53,2.526,6.285-10.13,1-11.4.5S788.27,838.319,788.27,838.319Z" transform="translate(-606.959 -607.401)" fill="#a8a8a8"/>
    <path id="Path_142" data-name="Path 142" d="M801.693,850.272c-4.306.755-10.13,1.008-11.4.505-.963-.385-1.634-2.223-1.9-3.088l-.126.025s.761,3.017,2.027,3.52,7.09.253,11.4-.5c1.241-.219,1.6-.73,1.462-1.375C803.049,849.787,802.616,850.112,801.693,850.272Z" transform="translate(-606.959 -616.806)" opacity="0.2"/>
    <path id="Path_143" data-name="Path 143" d="M257.4,95.548v.1a.324.324,0,0,0,0,.053V96a.037.037,0,0,1,0,.017V96.2l-.025.2a.654.654,0,0,1-.022.129h0a.518.518,0,0,0,0,.065v.039a.141.141,0,0,1,0,.034.117.117,0,0,1-.014.067c-.014.022,0,.045-.014.067s0,.034,0,.051a.874.874,0,0,1-.02.087h0a.448.448,0,0,1-.014.059.708.708,0,0,1-.02.073.331.331,0,0,1-.022.087.067.067,0,0,0,0,.022.277.277,0,0,1-.028.09c-.025.09-.056.182-.087.281,0,.028-.022.056-.031.084a.307.307,0,0,1-.02.048,6.105,6.105,0,0,1-.82,1.5l-.065.084a6.223,6.223,0,0,1-.528.6l-8.845,8.769-8.758-8.758a6.242,6.242,0,0,1-.688-.817,6.032,6.032,0,0,1-.356-.561,6.206,6.206,0,0,1-.749-3.52,2.294,2.294,0,0,1,.039-.337q.042-.281.109-.589a.412.412,0,0,1,.031-.115l.017-.062v-.034l.025-.09h0c.02-.067.042-.135.065-.2s.02-.062.031-.093c.045-.132.1-.261.152-.39l.034-.076.051-.115.09-.185h0c0-.028.028-.056.045-.084a.752.752,0,0,1,.051-.093c.02-.039.042-.076.065-.115a.561.561,0,0,0,.031-.056.116.116,0,0,0,.02-.031h0l.042-.067c.017-.025.031-.051.048-.073l.112-.168.039-.056.051-.07.053-.073.067-.087.059-.073.022-.028.042-.051a.97.97,0,0,1,.07-.081.417.417,0,0,1,.028-.036h0l.051-.059.062-.065c.053-.059.109-.118.168-.174l.067-.067.1-.1.07-.065.084-.073.053-.048.056-.045.109-.09.056-.045c.1-.073.191-.143.281-.208l.056-.039.059-.039.056-.036.081-.051.042-.025.059-.036c.081-.045.163-.093.244-.135l.048-.025.076-.039.062-.028.065-.031.062-.031.062-.028.065-.028c.084-.036.171-.07.255-.1l.065-.025.067-.025.062-.02.051-.017.118-.039.1-.065.048-.014h.048l.087-.025.112-.028c.115-.028.233-.053.351-.076h.32c.112,0,.225-.025.34-.034h.94c.093,0,.182.017.281.025l.123.017h.261c.118.022.233.048.348.076l.143.036h.039l.062.017.118.034.051.017.255.087.056.022.076.028.118.048.129.056.051.022.073.034.062.031.062.028.079.042.062.031.143.079.059.034.208.126.056.036.059.039.056.039h0l.039.025.244.18.056.045.109.09.056.045.053.048.084.073.07.065.1.1.067.067.07-.067c.034-.034.067-.067.1-.1a.768.768,0,0,1,.07-.065l.081-.073.056-.048.053-.045.112-.09.056-.045c.1-.073.191-.143.281-.208l.059-.039.059-.039.056-.036.081-.051.042-.025.059-.036c.081-.045.163-.093.244-.135l.048-.025.076-.039.062-.028.062-.031.065-.031.062-.028.065-.028c.084-.036.168-.07.255-.1l.062-.025.07-.025.062-.02.051-.017.118-.039.059-.017.051-.014h.048l.084-.025.112-.028q.177-.042.354-.076h.317c.112,0,.227-.025.34-.034h.94l.281.025.121.017h.264c.115.022.233.048.348.076l.143.036h.039l.062.017.118.034.051.017.255.087.056.022.076.028.115.048.132.056.051.022.07.034.062.031.065.028.076.042.062.031.143.079.062.034.208.126.053.036.059.039.062.045h0l.036.025c.084.059.166.118.244.18a.436.436,0,0,1,.056.045c.039.028.076.059.112.09l.056.045.053.048.073.062.07.065.039.039h0l.067.065.031.031.037.036.067.067.1.109a.62.62,0,0,1,.056.065c.034.034.065.07.1.107l.1.121a5.028,5.028,0,0,1,.323.438.419.419,0,0,1,.059.048.523.523,0,0,1,.045.065l.036.059.062.1.053.093.031.056.025.045.025.045.036.067.034.067c.081.157.154.32.222.483l.028.07c.025.067.051.135.073.2a.568.568,0,0,1,.022.062.316.316,0,0,0,.028.087l.025.079.017.051a.288.288,0,0,0,.02.07l.025.09c.014.048.025.1.036.146s.014.051.02.076.014.07.022.107a.283.283,0,0,0,0,.048v.811h0a51.625,51.625,0,0,1,0,.112v.093h0v.1Z" transform="translate(-209.89 -71.343)" fill="#ff6584"/>
    <path id="Path_144" data-name="Path 144" d="M257.851,95.548v.1a.331.331,0,0,0,0,.053V96a.036.036,0,0,1,0,.017V96.2l-.025.2a.652.652,0,0,1-.022.129h0a.518.518,0,0,0,0,.065v.039a.141.141,0,0,1,0,.034.117.117,0,0,1-.014.067c-.014.022,0,.045-.014.067s0,.034,0,.051a.884.884,0,0,1-.02.087h0a.444.444,0,0,1-.014.059.693.693,0,0,1-.02.073.331.331,0,0,1-.022.087.069.069,0,0,0,0,.022.277.277,0,0,1-.028.09c-.025.09-.056.182-.087.281,0,.028-.022.056-.031.084a.313.313,0,0,1-.02.048,6.175,6.175,0,0,0-1.642-5.83,6.275,6.275,0,0,0-1.058-.842c-.112-.07-.225-.138-.34-.2a6.175,6.175,0,0,0-6.633.368,5.946,5.946,0,0,0-.808.682,6.784,6.784,0,0,0-.758-.646h0a6.431,6.431,0,0,0-.64-.4,6.2,6.2,0,0,0-5.965,0,6.409,6.409,0,0,0-.881.587,6.279,6.279,0,0,0-1.2,1.269c-.123.174-.239.354-.342.536h0a5.824,5.824,0,0,0-.264.531c-.045.1-.087.2-.126.3a.411.411,0,0,1,.031-.115l.017-.062v-.034l.025-.09h0c.02-.067.042-.135.065-.2s.02-.062.031-.093c.045-.132.1-.261.152-.39l.034-.076.051-.115.09-.185h0c0-.028.028-.056.045-.084a.752.752,0,0,1,.051-.093c.02-.039.042-.076.065-.115a.558.558,0,0,0,.031-.056.116.116,0,0,0,.02-.031h0l.042-.067c.017-.025.031-.051.048-.073l.112-.168.039-.056.051-.07.053-.073L238,91.7l.059-.073.022-.028.042-.051a.973.973,0,0,1,.07-.081.411.411,0,0,1,.028-.036h0l.051-.059.062-.065c.053-.059.109-.118.168-.174l.067-.067.1-.1.07-.065.084-.073.053-.048.056-.045.109-.09.056-.045c.1-.073.191-.143.281-.208l.056-.039.059-.039.056-.036.081-.051.042-.025.059-.036c.081-.045.163-.093.244-.135l.048-.025.076-.039.062-.028.065-.031.062-.031.062-.028.065-.028c.084-.036.171-.07.255-.1l.065-.025.067-.025.062-.02.051-.017.118-.039.09-.045.048-.014h.048l.087-.025.112-.028c.115-.028.233-.053.351-.076h.32c.112,0,.225-.025.34-.034h.94c.093,0,.182.017.281.025l.124.017h.261c.118.022.233.048.348.076l.143.036h.039l.062.017.118.034.051.017.255.087.056.022.076.028.118.048.129.056.051.022.073.034.062.031.062.028.079.042.062.031.143.079.059.034.208.126.056.036.059.039.056.039h0l.039.025.244.18.056.045.109.09.056.045.053.048.084.073.07.065.1.1.067.067.07-.067c.034-.034.067-.067.1-.1a.77.77,0,0,1,.07-.065l.081-.073.056-.048.053-.045.112-.09.056-.045c.1-.073.191-.143.281-.208l.059-.039.059-.039.056-.036.081-.051.042-.025.059-.036c.081-.045.163-.093.244-.135l.048-.025.076-.039.062-.028.062-.031.065-.031.062-.028.065-.028c.084-.036.168-.07.255-.1l.062-.025.07-.025.062-.02.051-.017.118-.039.059-.017.051-.014h.048l.084-.025.112-.028q.177-.042.354-.076h.317c.112,0,.227-.025.34-.034h.94l.281.025.121.017h.264c.115.022.233.048.348.076l.143.036h.039l.062.017.118.034.05.017.255.087.056.022.076.028.115.048.132.056.051.022.07.034.062.031.065.028.076.042.062.031.143.079.062.034.208.126.053.036.059.039.062.045h0l.036.025c.084.059.166.118.244.18a.437.437,0,0,1,.056.045c.039.028.076.059.112.09l.056.045.053.048.073.062.07.065.039.039h0l.067.065.031.031.036.036.067.067.1.109a.621.621,0,0,1,.056.065c.034.034.065.07.1.107l.1.121a5.047,5.047,0,0,1,.323.438.423.423,0,0,1,.059.048.529.529,0,0,1,.045.065l.036.059.062.1.053.093.031.056.025.045.025.045.036.067.034.067c.081.157.154.32.222.483l.028.07c.025.067.051.135.073.2a.574.574,0,0,1,.022.062.315.315,0,0,0,.028.087l.025.079.017.051a.288.288,0,0,0,.02.07l.025.09c.014.048.025.1.037.146s.014.051.02.076.014.07.022.107a.283.283,0,0,0,0,.048v.811h0a.367.367,0,0,1,0,.056.367.367,0,0,1,0,.056v.093h0v.1Z" transform="translate(-210.342 -71.343)" opacity="0.1"/>
  </g>
</svg>
